<svg width="25" height="29" viewBox="0 0 25 29" fill="#000" xmlns="http://www.w3.org/2000/svg">
<path d="M0 25.893C0 26.6035 0.282251 27.2849 0.784661 27.7873C1.28707 28.2897 1.96848 28.572 2.679 28.572H22.321C23.0315 28.572 23.7129 28.2897 24.2153 27.7873C24.7178 27.2849 25 26.6035 25 25.893V10.714H0V25.893ZM17.857 14.955C17.8575 14.7775 17.9283 14.6074 18.0538 14.4818C18.1794 14.3563 18.3495 14.2855 18.527 14.285H20.759C20.9365 14.2855 21.1066 14.3563 21.2322 14.4818C21.3577 14.6074 21.4285 14.7775 21.429 14.955V17.187C21.4285 17.3645 21.3577 17.5346 21.2322 17.6602C21.1066 17.7857 20.9365 17.8565 20.759 17.857H18.527C18.3495 17.8565 18.1794 17.7857 18.0538 17.6602C17.9283 17.5346 17.8575 17.3645 17.857 17.187V14.955ZM17.857 22.098C17.8575 21.9205 17.9283 21.7504 18.0538 21.6248C18.1794 21.4993 18.3495 21.4285 18.527 21.428H20.759C20.9365 21.4285 21.1066 21.4993 21.2322 21.6248C21.3577 21.7504 21.4285 21.9205 21.429 22.098V24.33C21.4285 24.5075 21.3577 24.6776 21.2322 24.8032C21.1066 24.9287 20.9365 24.9995 20.759 25H18.527C18.3495 24.9995 18.1794 24.9287 18.0538 24.8032C17.9283 24.6776 17.8575 24.5075 17.857 24.33V22.098ZM10.714 14.955C10.7145 14.7775 10.7853 14.6074 10.9108 14.4818C11.0364 14.3563 11.2065 14.2855 11.384 14.285H13.616C13.7935 14.2855 13.9636 14.3563 14.0892 14.4818C14.2147 14.6074 14.2855 14.7775 14.286 14.955V17.187C14.2855 17.3645 14.2147 17.5346 14.0892 17.6602C13.9636 17.7857 13.7935 17.8565 13.616 17.857H11.384C11.2065 17.8565 11.0364 17.7857 10.9108 17.6602C10.7853 17.5346 10.7145 17.3645 10.714 17.187V14.955ZM10.714 22.098C10.7145 21.9205 10.7853 21.7504 10.9108 21.6248C11.0364 21.4993 11.2065 21.4285 11.384 21.428H13.616C13.7935 21.4285 13.9636 21.4993 14.0892 21.6248C14.2147 21.7504 14.2855 21.9205 14.286 22.098V24.33C14.2855 24.5075 14.2147 24.6776 14.0892 24.8032C13.9636 24.9287 13.7935 24.9995 13.616 25H11.384C11.2065 24.9995 11.0364 24.9287 10.9108 24.8032C10.7853 24.6776 10.7145 24.5075 10.714 24.33V22.098ZM3.571 14.955C3.57153 14.7775 3.64229 14.6074 3.76782 14.4818C3.89336 14.3563 4.06347 14.2855 4.241 14.285H6.473C6.65053 14.2855 6.82064 14.3563 6.94618 14.4818C7.07171 14.6074 7.14247 14.7775 7.143 14.955V17.187C7.14247 17.3645 7.07171 17.5346 6.94618 17.6602C6.82064 17.7857 6.65053 17.8565 6.473 17.857H4.241C4.06347 17.8565 3.89336 17.7857 3.76782 17.6602C3.64229 17.5346 3.57153 17.3645 3.571 17.187V14.955ZM3.571 22.098C3.57153 21.9205 3.64229 21.7504 3.76782 21.6248C3.89336 21.4993 4.06347 21.4285 4.241 21.428H6.473C6.65053 21.4285 6.82064 21.4993 6.94618 21.6248C7.07171 21.7504 7.14247 21.9205 7.143 22.098V24.33C7.14247 24.5075 7.07171 24.6776 6.94618 24.8032C6.82064 24.9287 6.65053 24.9995 6.473 25H4.241C4.06347 24.9995 3.89336 24.9287 3.76782 24.8032C3.64229 24.6776 3.57153 24.5075 3.571 24.33V22.098ZM22.321 3.571H19.643V0.893C19.6412 0.656728 19.5465 0.430652 19.3794 0.263577C19.2123 0.0965021 18.9863 0.00183064 18.75 0L16.964 0C16.7277 0.00183064 16.5017 0.0965021 16.3346 0.263577C16.1675 0.430652 16.0728 0.656728 16.071 0.893V3.571H8.929V0.893C8.92717 0.656728 8.8325 0.430652 8.66542 0.263577C8.49835 0.0965021 8.27227 0.00183064 8.036 0L6.25 0C6.01373 0.00183064 5.78765 0.0965021 5.62058 0.263577C5.4535 0.430652 5.35883 0.656728 5.357 0.893V3.571H2.679C1.96848 3.571 1.28707 3.85325 0.784661 4.35566C0.282251 4.85807 0 5.53948 0 6.25L0 8.929H25V6.25C25 5.53948 24.7178 4.85807 24.2153 4.35566C23.7129 3.85325 23.0315 3.571 22.321 3.571Z" fill="#41423A"/>
</svg>
