<svg width="91" height="82" viewBox="0 0 91 82" fill="none" xmlns="http://www.w3.org/2000/svg">
<path d="M88.5562 81.8115H2.75624C2.51476 81.8176 2.27456 81.7736 2.05024 81.6821C1.82592 81.5905 1.62214 81.4533 1.45129 81.2789C1.28043 81.1044 1.14605 80.8963 1.05631 80.6672C0.966573 80.4381 0.923342 80.1927 0.929243 79.946V8.00862C0.923348 7.762 0.96655 7.51672 1.05623 7.28766C1.14591 7.05861 1.28019 6.85055 1.45094 6.6761C1.62169 6.50166 1.82534 6.36447 2.04955 6.27285C2.27375 6.18123 2.51384 6.1371 2.75524 6.14312H88.5552C88.7966 6.1371 89.0367 6.18123 89.2609 6.27285C89.4851 6.36447 89.6888 6.50166 89.8595 6.6761C90.0303 6.85055 90.1646 7.05861 90.2543 7.28766C90.3439 7.51672 90.3871 7.762 90.3812 8.00862V79.946C90.3871 80.1925 90.344 80.4377 90.2543 80.6667C90.1647 80.8957 90.0305 81.1037 89.8599 81.2781C89.6892 81.4525 89.4857 81.5898 89.2616 81.6814C89.0375 81.7731 88.7976 81.8174 88.5562 81.8115V81.8115ZM4.58024 77.8148H86.4702V9.87617H4.58024V77.8148Z" fill="#A34C68"/>
<path d="M19.4466 16.2681C19.2052 16.2741 18.9652 16.23 18.741 16.1384C18.5167 16.0468 18.3131 15.9096 18.1423 15.7351C17.9716 15.5607 17.8373 15.3526 17.7476 15.1236C17.658 14.8945 17.6148 14.6492 17.6206 14.4026V1.88045C17.6318 1.39338 17.829 0.930093 18.1702 0.589643C18.5113 0.249194 18.9693 0.0585938 19.4461 0.0585938C19.923 0.0585938 20.381 0.249194 20.7221 0.589643C21.0633 0.930093 21.2605 1.39338 21.2716 1.88045V14.1401C21.2913 14.6659 21.1131 15.1794 20.7737 15.5752C20.4343 15.9709 19.9594 16.2189 19.4466 16.2681Z" fill="#A34C68"/>
<path d="M36.9193 16.2681C36.6779 16.2741 36.4378 16.23 36.2136 16.1384C35.9894 16.0468 35.7857 15.9096 35.615 15.7351C35.4443 15.5607 35.31 15.3526 35.2203 15.1236C35.1306 14.8945 35.0874 14.6492 35.0933 14.4026V1.88045C35.1045 1.39338 35.3017 0.930093 35.6428 0.589643C35.984 0.249194 36.4419 0.0585937 36.9188 0.0585938C37.3957 0.0585937 37.8537 0.249194 38.1948 0.589643C38.5359 0.930093 38.7331 1.39338 38.7443 1.88045V14.1401C38.7639 14.6659 38.5858 15.1794 38.2464 15.5752C37.9069 15.9709 37.4321 16.2189 36.9193 16.2681V16.2681Z" fill="#A34C68"/>
<path d="M54.392 16.2681C54.1506 16.2741 53.9105 16.23 53.6863 16.1384C53.4621 16.0468 53.2584 15.9096 53.0877 15.7351C52.9169 15.5607 52.7826 15.3526 52.6929 15.1236C52.6033 14.8945 52.5601 14.6492 52.566 14.4026V1.88045C52.5771 1.39338 52.7744 0.930093 53.1155 0.589643C53.4566 0.249194 53.9146 0.0585938 54.3915 0.0585938C54.8683 0.0585938 55.3263 0.249194 55.6674 0.589643C56.0086 0.930093 56.2058 1.39338 56.217 1.88045V14.1401C56.2364 14.6658 56.0581 15.1792 55.7187 15.5749C55.3794 15.9706 54.9046 16.2186 54.392 16.2681V16.2681Z" fill="#A34C68"/>
<path d="M71.6049 16.2681C71.3634 16.2741 71.1234 16.23 70.8992 16.1384C70.675 16.0468 70.4713 15.9096 70.3005 15.7351C70.1298 15.5607 69.9955 15.3526 69.9058 15.1236C69.8162 14.8945 69.773 14.6492 69.7789 14.4026V1.88045C69.79 1.39338 69.9872 0.930093 70.3284 0.589643C70.6695 0.249194 71.1275 0.0585938 71.6044 0.0585938C72.0812 0.0585938 72.5392 0.249194 72.8803 0.589643C73.2215 0.930093 73.4187 1.39338 73.4299 1.88045V14.1401C73.4632 14.4054 73.4409 14.675 73.3645 14.9308C73.2881 15.1867 73.1594 15.4231 72.9868 15.6243C72.8143 15.8255 72.6018 15.987 72.3636 16.098C72.1253 16.209 71.8667 16.267 71.6049 16.2681Z" fill="#A34C68"/>
<path d="M18.142 35.7185C17.9006 35.7245 17.6605 35.6804 17.4363 35.5887C17.2121 35.4971 17.0084 35.3599 16.8377 35.1855C16.6669 35.011 16.5326 34.803 16.4429 34.5739C16.3533 34.3449 16.3101 34.0996 16.316 33.853V30.6553C16.3103 30.4067 16.3533 30.1594 16.4425 29.9281C16.5316 29.6967 16.6652 29.4859 16.8353 29.308C17.0053 29.1301 17.2085 28.9888 17.4328 28.8923C17.6571 28.7958 17.8981 28.7461 18.1415 28.7461C18.3848 28.7461 18.6258 28.7958 18.8501 28.8923C19.0744 28.9888 19.2776 29.1301 19.4477 29.308C19.6177 29.4859 19.7513 29.6967 19.8405 29.9281C19.9296 30.1594 19.9727 30.4067 19.967 30.6553V33.853C19.9729 34.0995 19.9297 34.3447 19.8401 34.5737C19.7504 34.8027 19.6162 35.0107 19.4456 35.1851C19.275 35.3595 19.0714 35.4968 18.8473 35.5884C18.6233 35.6801 18.3833 35.7244 18.142 35.7185V35.7185Z" fill="#A34C68"/>
<path d="M31.9642 35.7185C31.7228 35.7245 31.4827 35.6804 31.2585 35.5887C31.0343 35.4971 30.8307 35.3599 30.6599 35.1855C30.4892 35.011 30.3549 34.803 30.2652 34.5739C30.1755 34.3449 30.1323 34.0996 30.1382 33.853V30.6553C30.1325 30.4067 30.1755 30.1594 30.2647 29.9281C30.3539 29.6967 30.4875 29.4859 30.6575 29.308C30.8276 29.1301 31.0308 28.9888 31.2551 28.8923C31.4794 28.7958 31.7203 28.7461 31.9637 28.7461C32.2071 28.7461 32.4481 28.7958 32.6724 28.8923C32.8967 28.9888 33.0998 29.1301 33.2699 29.308C33.44 29.4859 33.5736 29.6967 33.6627 29.9281C33.7519 30.1594 33.7949 30.4067 33.7892 30.6553V33.853C33.7951 34.0995 33.7519 34.3447 33.6623 34.5737C33.5727 34.8027 33.4385 35.0107 33.2679 35.1851C33.0972 35.3595 32.8937 35.4968 32.6696 35.5884C32.4455 35.6801 32.2055 35.7244 31.9642 35.7185V35.7185Z" fill="#A34C68"/>
<path d="M45.5248 35.7171C45.2834 35.7231 45.0433 35.679 44.8191 35.5874C44.5949 35.4958 44.3912 35.3586 44.2205 35.1841C44.0497 35.0097 43.9154 34.8016 43.8258 34.5726C43.7361 34.3435 43.6929 34.0982 43.6988 33.8516V30.6539C43.7099 30.1668 43.9072 29.7035 44.2483 29.3631C44.5894 29.0226 45.0474 28.832 45.5243 28.832C46.0012 28.832 46.4591 29.0226 46.8003 29.3631C47.1414 29.7035 47.3386 30.1668 47.3498 30.6539V33.8516C47.6108 34.9192 46.5678 35.7171 45.5248 35.7171Z" fill="#A34C68"/>
<path d="M59.348 35.7185C59.1066 35.7245 58.8665 35.6804 58.6423 35.5887C58.4181 35.4971 58.2145 35.3599 58.0437 35.1855C57.873 35.011 57.7387 34.803 57.649 34.5739C57.5593 34.3449 57.5161 34.0996 57.522 33.853V30.6553C57.5163 30.4067 57.5593 30.1594 57.6485 29.9281C57.7377 29.6967 57.8712 29.4859 58.0413 29.308C58.2114 29.1301 58.4146 28.9888 58.6389 28.8923C58.8632 28.7958 59.1041 28.7461 59.3475 28.7461C59.5909 28.7461 59.8318 28.7958 60.0562 28.8923C60.2805 28.9888 60.4836 29.1301 60.6537 29.308C60.8238 29.4859 60.9573 29.6967 61.0465 29.9281C61.1357 30.1594 61.1787 30.4067 61.173 30.6553V33.853C61.1789 34.0995 61.1357 34.3447 61.0461 34.5737C60.9565 34.8027 60.8223 35.0107 60.6517 35.1851C60.481 35.3595 60.2775 35.4968 60.0534 35.5884C59.8293 35.6801 59.5893 35.7244 59.348 35.7185V35.7185Z" fill="#A34C68"/>
<path d="M18.142 66.8903C17.9006 66.8964 17.6605 66.8522 17.4363 66.7606C17.2121 66.669 17.0084 66.5318 16.8377 66.3574C16.6669 66.1829 16.5326 65.9749 16.4429 65.7458C16.3533 65.5167 16.3101 65.2715 16.316 65.0248V61.8271C16.3103 61.5785 16.3533 61.3313 16.4425 61.0999C16.5316 60.8686 16.6652 60.6578 16.8353 60.4799C17.0053 60.302 17.2085 60.1607 17.4328 60.0642C17.6571 59.9677 17.8981 59.918 18.1415 59.918C18.3848 59.918 18.6258 59.9677 18.8501 60.0642C19.0744 60.1607 19.2776 60.302 19.4477 60.4799C19.6177 60.6578 19.7513 60.8686 19.8405 61.0999C19.9296 61.3313 19.9727 61.5785 19.967 61.8271V65.0248C19.9358 65.509 19.7335 65.965 19.3978 66.3082C19.0621 66.6513 18.6158 66.8582 18.142 66.8903V66.8903Z" fill="#A34C68"/>
<path d="M31.9642 66.8903C31.7228 66.8964 31.4827 66.8522 31.2585 66.7606C31.0343 66.669 30.8307 66.5318 30.6599 66.3574C30.4892 66.1829 30.3549 65.9749 30.2652 65.7458C30.1755 65.5167 30.1323 65.2715 30.1382 65.0248V61.8271C30.1325 61.5785 30.1755 61.3313 30.2647 61.0999C30.3539 60.8686 30.4875 60.6578 30.6575 60.4799C30.8276 60.302 31.0308 60.1607 31.2551 60.0642C31.4794 59.9677 31.7203 59.918 31.9637 59.918C32.2071 59.918 32.4481 59.9677 32.6724 60.0642C32.8967 60.1607 33.0998 60.302 33.2699 60.4799C33.44 60.6578 33.5736 60.8686 33.6627 61.0999C33.7519 61.3313 33.7949 61.5785 33.7892 61.8271V65.0248C33.758 65.509 33.5558 65.965 33.2201 66.3082C32.8844 66.6513 32.4381 66.8582 31.9642 66.8903Z" fill="#A34C68"/>
<path d="M45.5248 66.8909C45.2834 66.897 45.0433 66.8528 44.8191 66.7612C44.5949 66.6696 44.3912 66.5324 44.2205 66.3579C44.0497 66.1835 43.9154 65.9754 43.8258 65.7464C43.7361 65.5173 43.6929 65.2721 43.6988 65.0254V61.8277C43.7099 61.3406 43.9072 60.8774 44.2483 60.5369C44.5894 60.1965 45.0474 60.0059 45.5243 60.0059C46.0012 60.0059 46.4591 60.1965 46.8003 60.5369C47.1414 60.8774 47.3386 61.3406 47.3498 61.8277V65.0254C47.6108 65.8254 46.5678 66.8909 45.5248 66.8909Z" fill="#A34C68"/>
<path d="M73.1703 35.7185C72.9289 35.7245 72.6888 35.6804 72.4646 35.5887C72.2404 35.4971 72.0367 35.3599 71.866 35.1855C71.6952 35.011 71.5609 34.803 71.4713 34.5739C71.3816 34.3449 71.3384 34.0996 71.3443 33.853V30.6553C71.3386 30.4067 71.3816 30.1594 71.4708 29.9281C71.56 29.6967 71.6935 29.4859 71.8636 29.308C72.0337 29.1301 72.2368 28.9888 72.4611 28.8923C72.6855 28.7958 72.9264 28.7461 73.1698 28.7461C73.4132 28.7461 73.6541 28.7958 73.8784 28.8923C74.1027 28.9888 74.3059 29.1301 74.476 29.308C74.6461 29.4859 74.7796 29.6967 74.8688 29.9281C74.958 30.1594 75.001 30.4067 74.9953 30.6553V33.853C74.9641 34.3371 74.7618 34.7931 74.4261 35.1363C74.0904 35.4794 73.6441 35.6863 73.1703 35.7185V35.7185Z" fill="#A34C68"/>
<path d="M18.142 51.1716C17.9006 51.1776 17.6605 51.1335 17.4363 51.0419C17.2121 50.9502 17.0084 50.8131 16.8377 50.6386C16.6669 50.4642 16.5326 50.2561 16.4429 50.0271C16.3533 49.798 16.3101 49.5527 16.316 49.3061V46.1084C16.3103 45.8598 16.3533 45.6125 16.4425 45.3812C16.5316 45.1498 16.6652 44.939 16.8353 44.7611C17.0053 44.5833 17.2085 44.4419 17.4328 44.3454C17.6571 44.2489 17.8981 44.1992 18.1415 44.1992C18.3848 44.1992 18.6258 44.2489 18.8501 44.3454C19.0744 44.4419 19.2776 44.5833 19.4477 44.7611C19.6177 44.939 19.7513 45.1498 19.8405 45.3812C19.9296 45.6125 19.9727 45.8598 19.967 46.1084V49.3061C19.9729 49.5526 19.9297 49.7978 19.8401 50.0268C19.7504 50.2558 19.6162 50.4638 19.4456 50.6382C19.275 50.8127 19.0714 50.9499 18.8473 51.0416C18.6233 51.1332 18.3833 51.1775 18.142 51.1716V51.1716Z" fill="#A34C68"/>
<path d="M62.2162 55.4346H56.2162C55.0515 55.3992 53.9441 54.9107 53.1203 54.0689C52.2966 53.2271 51.8186 52.0956 51.7842 50.9057V44.7759C51.8189 43.5859 52.2972 42.4544 53.1214 41.6128C53.9456 40.7711 55.0534 40.2829 56.2182 40.248H62.2182C63.3833 40.283 64.4914 40.7714 65.3156 41.6135C66.1399 42.4556 66.618 43.5876 66.6522 44.778V50.9078C66.6172 52.0979 66.1385 53.2295 65.3139 54.071C64.4893 54.9124 63.3812 55.4003 62.2162 55.4346V55.4346ZM56.2162 44.2447C56.0807 44.254 55.9532 44.3132 55.8572 44.4113C55.7612 44.5093 55.7033 44.6396 55.6942 44.778V50.9078C55.7033 51.0461 55.7612 51.1764 55.8572 51.2745C55.9532 51.3726 56.0807 51.4317 56.2162 51.4411H62.2162C62.3516 51.4317 62.4792 51.3726 62.5751 51.2745C62.6711 51.1764 62.7291 51.0461 62.7382 50.9078V44.778C62.7291 44.6396 62.6711 44.5093 62.5751 44.4113C62.4792 44.3132 62.3516 44.254 62.2162 44.2447H56.2162Z" fill="#A34C68"/>
<path d="M73.1703 51.1716C72.9289 51.1776 72.6888 51.1335 72.4646 51.0419C72.2404 50.9502 72.0367 50.8131 71.866 50.6386C71.6952 50.4642 71.5609 50.2561 71.4713 50.0271C71.3816 49.798 71.3384 49.5527 71.3443 49.3061V46.1084C71.3386 45.8598 71.3816 45.6125 71.4708 45.3812C71.56 45.1498 71.6935 44.939 71.8636 44.7611C72.0337 44.5833 72.2368 44.4419 72.4611 44.3454C72.6855 44.2489 72.9264 44.1992 73.1698 44.1992C73.4132 44.1992 73.6541 44.2489 73.8784 44.3454C74.1027 44.4419 74.3059 44.5833 74.476 44.7611C74.6461 44.939 74.7796 45.1498 74.8688 45.3812C74.958 45.6125 75.001 45.8598 74.9953 46.1084V49.3061C75.0012 49.5526 74.958 49.7978 74.8684 50.0268C74.7788 50.2558 74.6446 50.4638 74.4739 50.6382C74.3033 50.8127 74.0998 50.9499 73.8757 51.0416C73.6516 51.1332 73.4116 51.1775 73.1703 51.1716V51.1716Z" fill="#A34C68"/>
<path d="M45.5248 51.1722C45.2834 51.1782 45.0433 51.1341 44.8191 51.0424C44.5949 50.9508 44.3912 50.8136 44.2205 50.6392C44.0497 50.4648 43.9154 50.2567 43.8258 50.0276C43.7361 49.7986 43.6929 49.5533 43.6988 49.3067V46.109C43.7099 45.6219 43.9072 45.1586 44.2483 44.8182C44.5894 44.4777 45.0474 44.2871 45.5243 44.2871C46.0012 44.2871 46.4591 44.4777 46.8003 44.8182C47.1414 45.1586 47.3386 45.6219 47.3498 46.109V49.3067C47.3557 49.5532 47.3125 49.7984 47.2229 50.0274C47.1333 50.2564 46.9991 50.4644 46.8284 50.6388C46.6578 50.8132 46.4542 50.9505 46.2302 51.0421C46.0061 51.1338 45.7661 51.1781 45.5248 51.1722Z" fill="#A34C68"/>
<path d="M31.7035 51.1716C31.4621 51.1776 31.222 51.1335 30.9978 51.0419C30.7736 50.9502 30.5699 50.8131 30.3992 50.6386C30.2284 50.4642 30.0941 50.2561 30.0045 50.0271C29.9148 49.798 29.8716 49.5527 29.8775 49.3061V46.1084C29.8718 45.8598 29.9148 45.6125 30.004 45.3812C30.0932 45.1498 30.2267 44.939 30.3968 44.7611C30.5669 44.5833 30.77 44.4419 30.9943 44.3454C31.2187 44.2489 31.4596 44.1992 31.703 44.1992C31.9464 44.1992 32.1873 44.2489 32.4116 44.3454C32.6359 44.4419 32.8391 44.5833 33.0092 44.7611C33.1793 44.939 33.3128 45.1498 33.402 45.3812C33.4912 45.6125 33.5342 45.8598 33.5285 46.1084V49.3061C33.7895 50.3737 32.7465 51.1716 31.7035 51.1716Z" fill="#A34C68"/>
</svg>
