<svg width="86" height="94" viewBox="0 0 86 94" fill="none" xmlns="http://www.w3.org/2000/svg">
<path d="M46.8281 87.4052C45.7859 87.3639 44.763 87.1064 43.8214 86.6483C42.8798 86.1903 42.0393 85.5412 41.351 84.7407C39.701 83.2117 38.4467 81.2895 37.7 79.1452C33.006 83.4085 27.5291 84.4741 24.6601 81.543C21.7911 78.8786 22.313 73.0175 25.96 67.9553C23.8654 67.2734 21.918 66.1879 20.223 64.7576C17.876 62.6264 16.8331 60.2276 17.3541 57.8299C17.8751 55.4321 19.701 53.5666 22.831 52.7677C24.9541 52.1835 27.1641 52.0027 29.351 52.2344C28.829 49.9559 28.829 47.5851 29.351 45.3067C29.4955 43.9763 29.9817 42.7085 30.7604 41.632C31.5391 40.5555 32.5826 39.7085 33.7851 39.1769C36.1324 38.3773 38.4794 39.1765 40.8261 41.5746C42.4758 43.1031 43.7301 45.0246 44.4771 47.1681C46.1406 45.6293 48.0922 44.4512 50.2141 43.7048C53.083 42.6392 55.952 42.9058 57.514 44.7703C59.34 46.3692 59.861 49.0336 59.079 52.2282C58.5003 54.4345 57.5276 56.5127 56.21 58.3581C61.948 60.4892 65.859 64.7525 64.816 68.7491C64.294 71.1469 62.4691 73.0124 59.3391 73.8113C57.216 74.3955 55.006 74.5762 52.819 74.3446C53.862 80.4744 52.297 86.0678 48.385 87.1334C47.871 87.1385 47.35 87.4052 46.8281 87.4052ZM38.222 73.8174H38.7441C39.5261 74.0841 40.0441 74.3507 40.0441 75.1455L40.305 75.6788C40.9829 78.0872 42.2377 80.285 43.956 82.0732C45.256 83.1388 46.303 83.6721 47.346 83.4014C49.432 82.8681 50.215 78.0725 48.646 72.7437L48.385 72.2104C48.2844 71.8813 48.2801 71.5294 48.3729 71.1979C48.4657 70.8664 48.6513 70.5699 48.907 70.3449C49.1171 70.0701 49.407 69.8704 49.7351 69.7746C50.0632 69.6788 50.4126 69.6917 50.733 69.8116H51.2551C53.6603 70.3457 56.1498 70.3457 58.555 69.8116C60.12 69.2783 61.163 68.4835 61.424 67.6805C61.946 65.5493 58.555 62.3516 53.079 61.2861H52.557C51.775 61.0194 51.257 60.7528 51.257 59.9579C51.1564 59.6289 51.1521 59.2769 51.2449 58.9454C51.3376 58.6139 51.5233 58.3174 51.779 58.0924L52.04 57.8258C53.7806 56.0549 55.039 53.8509 55.691 51.4314C55.9573 50.8227 56.0496 50.1494 55.9572 49.4894C55.8649 48.8293 55.5916 48.2095 55.1691 47.7014C54.6196 47.3783 54.0058 47.1865 53.3735 47.1404C52.7412 47.0942 52.1069 47.1948 51.5181 47.4347C49.2003 48.3204 47.1372 49.7862 45.5181 51.698L45.2571 51.9647C45.047 52.2395 44.7571 52.4391 44.429 52.535C44.1009 52.6308 43.7515 52.6178 43.431 52.498C42.649 52.2313 42.131 51.9647 42.131 51.1698L41.877 50.6416C41.1992 48.2333 39.9444 46.0355 38.226 44.2472C36.926 43.1817 35.879 42.6484 34.836 42.9191C34.054 43.1858 33.271 44.2472 33.01 46.1168C32.5489 48.607 32.7288 51.1769 33.532 53.5748L33.793 54.1081C33.8937 54.4371 33.8979 54.7891 33.8052 55.1206C33.7124 55.4521 33.5268 55.7486 33.271 55.9736C33.061 56.2484 32.7711 56.448 32.443 56.5439C32.1149 56.6397 31.7655 56.6267 31.445 56.5068H30.9231C28.5178 55.9728 26.0283 55.9728 23.623 56.5068C22.058 57.0401 21.015 57.835 20.754 58.638C20.493 59.441 21.276 60.7691 22.319 61.8357C24.2096 63.4209 26.4459 64.5178 28.8391 65.0334H29.361C30.143 65.3001 30.661 65.5667 30.661 66.3615C30.7159 66.6926 30.6976 67.032 30.6072 67.3548C30.5169 67.6776 30.3569 67.9757 30.139 68.227L29.8781 68.4937C26.2271 72.4903 25.184 77.2859 26.748 78.6181C28.313 79.9462 32.7481 78.6181 36.3971 74.6214L36.6581 74.3548C37.1332 74.0575 37.6677 73.8735 38.222 73.8164V73.8174Z" fill="#A34C68"/>
<path d="M41.0916 69.0215C40.1615 69.0432 39.2486 68.7635 38.4836 68.2226C37.1395 67.4721 36.1168 66.2376 35.6146 64.7593C35.1707 63.2657 35.2632 61.6593 35.8756 60.2293C36.205 59.5232 36.6776 58.8966 37.262 58.3913C37.8465 57.8859 38.5294 57.5134 39.2656 57.2983C40.7275 56.8448 42.2999 56.9394 43.6996 57.5649C45.0437 58.3154 46.0664 59.5499 46.5686 61.0282C47.0126 62.5218 46.92 64.1282 46.3076 65.5582C45.9783 66.2643 45.5057 66.8909 44.9212 67.3962C44.3367 67.9016 43.6538 68.2741 42.9176 68.4892C42.3878 68.8776 41.7423 69.0658 41.0916 69.0215ZM41.0916 61.0282H40.5696C40.0336 61.2281 39.5767 61.6025 39.2696 62.0938C39.0569 62.5972 38.9674 63.146 39.0086 63.6927C39.2042 64.2403 39.5707 64.707 40.0516 65.0208C40.5444 65.2381 41.0815 65.3296 41.6166 65.2874C42.1526 65.0876 42.6095 64.7132 42.9166 64.2219C43.1293 63.7184 43.2189 63.1697 43.1776 62.623C42.982 62.0754 42.6155 61.6087 42.1346 61.2949C41.6136 61.2949 41.3526 61.0282 41.0916 61.0282Z" fill="#A34C68"/>
<path d="M18.4019 58.8976C18.2604 58.9154 18.1167 58.9008 17.9814 58.8546C17.8461 58.8085 17.7226 58.7321 17.6199 58.631C17.5854 58.6318 17.5511 58.6255 17.5191 58.6124C17.4871 58.5993 17.458 58.5797 17.4336 58.5547C17.4092 58.5298 17.39 58.5001 17.3771 58.4674C17.3643 58.4346 17.3581 58.3996 17.3589 58.3643C10.3179 58.631 4.84095 55.6999 4.57995 51.171C4.31895 47.1744 8.49195 43.4444 14.49 42.1122C11.621 36.5167 11.6209 30.9222 15.0119 28.5244C18.4029 26.1267 23.6179 27.9911 27.7909 32.7877C30.9209 27.4589 35.8759 24.5278 39.5269 26.3933C43.4389 28.2588 44.4819 34.6532 41.6129 41.3092V41.5758C41.6483 42.0643 41.5093 42.5494 41.2216 42.9412C40.9338 43.333 40.5169 43.605 40.048 43.7069H39.5259C39.1831 43.7168 38.8423 43.6505 38.527 43.5125C38.2117 43.3746 37.9295 43.1683 37.6999 42.908C37.5322 42.6326 37.4224 42.3245 37.3775 42.0033C37.3325 41.6821 37.3535 41.355 37.4389 41.0425L37.6999 40.5092C40.0469 35.447 39.5259 30.9171 37.6999 29.8515C35.8739 29.0526 31.963 31.717 29.615 36.7792L29.354 37.3125C29.2183 37.6231 28.9993 37.888 28.7223 38.0766C28.4454 38.2652 28.1217 38.3697 27.7889 38.3781C27.4461 38.388 27.1053 38.3216 26.79 38.1837C26.4747 38.0458 26.1925 37.8395 25.9629 37.5792L25.7019 37.0459C22.5719 32.516 18.4019 30.3848 16.8349 31.717C15.0089 33.0452 15.5349 37.5782 18.6609 42.1081L18.9219 42.3747C19.1478 42.6206 19.294 42.9316 19.3407 43.2654C19.3874 43.5992 19.3323 43.9396 19.1829 44.2402C19.0473 44.5508 18.8283 44.8157 18.5513 45.0043C18.2743 45.1929 17.9507 45.2974 17.6179 45.3058H17.0959C11.6189 45.8391 7.96795 48.5035 7.96795 50.6346C8.22895 52.7658 12.402 54.6313 17.617 54.3646H18.1389C18.4818 54.3548 18.8226 54.4211 19.1379 54.559C19.4532 54.697 19.7354 54.9032 19.9649 55.1635C20.1327 55.439 20.2425 55.7471 20.2874 56.0683C20.3324 56.3894 20.3114 56.7166 20.2259 57.0291L19.9649 57.5623C19.9262 57.9491 19.7411 58.3051 19.4491 58.5546C19.1572 58.804 18.7814 58.9271 18.4019 58.8976Z" fill="#A34C68"/>
<path d="M67.692 69.5539C65.4823 69.3656 63.4281 68.3161 61.955 66.6228C61.6092 66.2695 61.4149 65.7903 61.4149 65.2906C61.4149 64.7909 61.6092 64.3117 61.955 63.9584C62.3009 63.605 62.7699 63.4066 63.259 63.4066C63.7481 63.4066 64.2172 63.605 64.563 63.9584C65.863 65.2865 67.171 66.0895 68.214 65.5572C70.3 65.0239 71.083 60.2284 69.514 54.8995L69.253 54.3662C69.1523 54.0372 69.1481 53.6852 69.2409 53.3537C69.3336 53.0222 69.5193 52.7257 69.775 52.5007C69.985 52.2259 70.275 52.0263 70.6031 51.9304C70.9312 51.8346 71.2806 51.8476 71.601 51.9674H72.123C77.339 53.033 81.772 51.7008 82.294 49.5697C82.816 47.4385 79.425 44.2408 73.949 43.1753H73.427C72.645 42.9086 72.127 42.642 72.127 41.8471C72.0264 41.5181 72.0221 41.1661 72.1149 40.8346C72.2076 40.5031 72.3933 40.2066 72.649 39.9816L72.91 39.715C74.6506 37.9441 75.909 35.7401 76.561 33.3206C76.8274 32.7119 76.9198 32.0386 76.8274 31.3786C76.735 30.7185 76.4617 30.0986 76.039 29.5906C75.4896 29.2675 74.8758 29.0757 74.2435 29.0296C73.6112 28.9834 72.9768 29.084 72.388 29.3239C70.0703 30.2096 68.0072 31.6755 66.388 33.5872L66.127 33.8539C65.917 34.1287 65.6271 34.3283 65.299 34.4242C64.9709 34.52 64.6215 34.507 64.301 34.3872C63.519 34.1205 63.001 33.8539 63.001 33.059L62.74 32.5257C61.175 27.1969 57.785 24.0002 55.699 24.7991C53.613 25.3324 52.83 30.128 54.399 35.4568L54.66 35.9901C54.7607 36.3192 54.7649 36.6712 54.6722 37.0026C54.5794 37.3341 54.3938 37.6306 54.138 37.8556C53.928 38.1304 53.6381 38.3301 53.31 38.4259C52.9819 38.5217 52.6325 38.5088 52.312 38.3889H51.79C49.3848 37.8548 46.8953 37.8548 44.49 38.3889C42.925 38.9222 41.882 39.717 41.621 40.52C41.5605 40.774 41.4504 41.0128 41.2973 41.2222C41.1443 41.4316 40.9514 41.6072 40.7303 41.7386C40.5092 41.87 40.2643 41.9544 40.0105 41.9868C39.7567 42.0192 39.4991 41.9989 39.2531 41.9271C39.0071 41.8553 38.7779 41.7335 38.5791 41.5691C38.3803 41.4046 38.2161 41.2008 38.0963 40.9699C37.9765 40.739 37.9035 40.4857 37.8818 40.2253C37.8601 39.9649 37.8902 39.7027 37.97 39.4545C38.492 37.0567 40.317 35.1912 43.447 34.3923C45.5701 33.8081 47.7801 33.6273 49.967 33.859C48.924 27.7292 50.489 22.1357 54.401 21.0702C58.313 19.742 62.746 23.2013 65.354 29.0634C67.0176 27.5247 68.9692 26.3465 71.091 25.6001C73.96 24.5345 76.828 24.8012 78.391 26.6657C80.217 28.2645 80.738 30.9289 79.956 34.1236C79.3772 36.3299 78.4046 38.408 77.087 40.2534C82.824 42.3845 86.736 46.6478 85.693 50.6444C84.911 54.6411 79.693 57.0388 73.436 56.2399C74.479 62.3697 72.914 67.9632 69.002 69.0287C68.735 69.5539 68.213 69.5539 67.692 69.5539Z" fill="#A34C68"/>
<path d="M61.9549 51.4352C60.7155 51.4173 59.5145 50.9934 58.5285 50.2259C57.5426 49.4585 56.8238 48.388 56.4779 47.1719C56.0339 45.6784 56.1265 44.072 56.7389 42.642C57.4735 41.2688 58.6819 40.224 60.1289 39.7109C61.5769 39.2334 63.1509 39.3593 64.5085 40.0611C65.8662 40.7629 66.8978 41.9839 67.3789 43.4586C67.8601 44.9333 67.7519 46.5425 67.078 47.9361C66.404 49.3298 65.2187 50.3953 63.7799 50.9009C63.1998 51.1674 62.5851 51.3474 61.9549 51.4352ZM61.1729 43.4419C60.6368 43.6418 60.18 44.0162 59.8729 44.5075C59.6602 45.0109 59.5706 45.5597 59.6119 46.1064C59.8075 46.654 60.174 47.1207 60.6549 47.4345C61.1477 47.6518 61.6848 47.7433 62.2199 47.7011C62.7242 47.5045 63.1377 47.1214 63.3785 46.6279C63.6193 46.1344 63.6698 45.5665 63.5199 45.0367C63.5048 44.7575 63.4262 44.4857 63.2904 44.2429C63.1546 44.0001 62.9654 43.7929 62.7377 43.6378C62.5099 43.4827 62.25 43.3838 61.9784 43.3491C61.7068 43.3144 61.431 43.3448 61.1729 43.4378V43.4419Z" fill="#A34C68"/>
<path d="M64.5632 93.7998H13.7082C13.2701 93.7893 12.8489 93.6244 12.5161 93.333C12.1833 93.0416 11.9594 92.6417 11.8822 92.2009L3.01524 48.7712C1.52594 45.3363 0.812966 41.6028 0.929238 37.8479C0.94283 28.7901 4.13225 20.0369 9.91946 13.1748C15.7067 6.31274 23.7087 1.79585 32.4753 0.442782C41.2418 -0.910287 50.1928 0.990006 57.7059 5.79925C65.219 10.6085 70.7971 18.0085 73.4292 26.658C73.5091 26.9062 73.5391 27.1684 73.5174 27.4288C73.4957 27.6892 73.4228 27.9424 73.303 28.1733C73.1832 28.4042 73.0189 28.608 72.8202 28.7725C72.6214 28.937 72.3921 29.0588 72.1462 29.1306C71.9002 29.2024 71.6426 29.2227 71.3888 29.1903C71.1349 29.1579 70.8901 29.0735 70.669 28.9421C70.4479 28.8107 70.255 28.635 70.1019 28.4256C69.9489 28.2162 69.8388 27.9774 69.7782 27.7235C67.7516 20.7337 63.5482 14.6102 57.806 10.2825C52.0638 5.95469 45.0964 3.65896 37.9612 3.74371C29.1808 3.75642 20.7636 7.32551 14.5549 13.6685C8.34618 20.0116 4.85267 28.6109 4.84023 37.5813C4.76433 40.8758 5.38726 44.1481 6.66624 47.1734V47.44L15.2722 89.5375H62.9982L68.4752 66.091C68.541 65.8429 68.6544 65.6106 68.8088 65.4076C68.9632 65.2046 69.1555 65.035 69.3746 64.9085C69.5937 64.7821 69.8352 64.7014 70.085 64.6711C70.3349 64.6407 70.5882 64.6614 70.8302 64.7319C71.0721 64.8024 71.298 64.9213 71.4946 65.0817C71.6913 65.2421 71.8548 65.4408 71.9756 65.6663C72.0965 65.8918 72.1723 66.1395 72.1986 66.3952C72.225 66.6508 72.2014 66.9093 72.1292 67.1555L66.3912 92.2009C66.3131 92.6416 66.0886 93.0413 65.7556 93.3325C65.4226 93.6238 65.0015 93.7888 64.5632 93.7998Z" fill="#A34C68"/>
</svg>
