<svg width="180" height="52" viewBox="0 0 180 52" fill="none" xmlns="http://www.w3.org/2000/svg">
<path fill-rule="evenodd" clip-rule="evenodd" d="M28.831 31.9201V30.9281L13.85 31.0141C13.7347 25.2641 13.677 20.5921 13.677 16.9981C13.677 11.9981 13.749 6.90914 13.893 1.73114H9.4C9.544 6.8198 9.616 11.8511 9.616 16.8251C9.616 21.7705 9.544 26.8018 9.4 31.9191L28.831 31.9201ZM52.589 31.9201V30.9281L36.744 31.0141C36.658 27.3915 36.6147 23.4958 36.614 19.3271H47.278V18.3351H36.614V15.3601C36.614 10.8175 36.6573 6.59114 36.744 2.68114H51.509V1.73214H32.3C32.444 6.8208 32.516 11.8521 32.516 16.8261C32.516 21.7715 32.444 26.8028 32.3 31.9201H52.589ZM75.117 3.88814C72.6147 2.39707 69.7397 1.64925 66.828 1.73214H56.034C56.178 6.8208 56.25 11.8521 56.25 16.8261C56.25 21.7715 56.178 26.8028 56.034 31.9201H66.31C69.3403 32.0117 72.339 31.2816 74.988 29.8071C77.272 28.5081 79.1314 26.5762 80.342 24.2441C81.5439 21.9724 82.1666 19.4392 82.155 16.8691C82.1639 14.3183 81.5567 11.803 80.385 9.53714C79.1941 7.19699 77.3684 5.23933 75.117 3.88814V3.88814ZM72.009 29.0311C69.859 30.4005 67.3469 31.0917 64.799 31.0151H60.481C60.3657 25.2071 60.308 20.4921 60.308 16.8701C60.308 13.2481 60.3657 8.5328 60.481 2.72414L65.23 2.68014C67.6959 2.61065 70.1233 3.30348 72.181 4.66414C74.0909 5.96401 75.601 7.77017 76.542 9.88014C77.5502 12.0399 78.0663 14.3966 78.053 16.7801C78.0663 19.1916 77.5505 21.5766 76.542 23.7671C75.5487 25.9084 73.9792 27.7311 72.009 29.0311V29.0311ZM102.03 32.5241C102.983 32.5132 103.935 32.4411 104.879 32.3081C107.366 32.0219 109.734 31.0847 111.744 29.5911C113.594 28.1877 115.052 26.331 115.975 24.2001C116.925 22.0703 117.411 19.7624 117.4 17.4301C117.408 14.6765 116.772 11.9592 115.543 9.49514C114.262 6.88453 112.259 4.6961 109.772 3.18949C107.285 1.68287 104.418 0.921307 101.511 0.995136C100.935 0.995136 100.502 1.00947 100.211 1.03814C97.4216 1.14926 94.7116 1.99885 92.358 3.50014C90.3043 4.85128 88.6497 6.72755 87.566 8.93414C86.5242 11.1455 85.9931 13.5628 86.012 16.0071C86.0076 18.7724 86.6429 21.5011 87.868 23.9801C89.1596 26.6127 91.1818 28.8177 93.6929 30.3319C96.204 31.8461 99.0979 32.6054 102.029 32.5191L102.03 32.5241ZM109.413 29.4621C108.113 30.7012 106.447 31.4878 104.664 31.7051C104.135 31.7876 103.6 31.8307 103.064 31.8341C100.569 31.8688 98.1453 30.9968 96.244 29.3801C94.2337 27.6379 92.6779 25.4324 91.711 22.9541C90.6819 20.3749 90.1545 17.6231 90.157 14.8461C90.1328 12.6851 90.4983 10.5375 91.236 8.50614C91.9181 6.64281 93.0979 5.00206 94.647 3.76214C96.2657 2.49082 98.2461 1.76602 100.303 1.69214C101.536 1.58625 102.778 1.72619 103.956 2.10384C105.135 2.48149 106.226 3.08934 107.168 3.89214C109.221 5.59565 110.785 7.81301 111.701 10.3181C112.733 12.9714 113.26 15.7942 113.255 18.6411C113.272 20.7204 112.951 22.7886 112.305 24.7651C111.729 26.539 110.737 28.1494 109.412 29.4621H109.413ZM137.826 3.80214C139.169 4.64017 140.235 5.85504 140.891 7.29514H141.755C141.207 5.74952 140.197 4.40971 138.862 3.45714C137.233 2.25774 135.272 1.59384 133.249 1.55714C132.961 1.52847 132.515 1.51414 131.911 1.51414C129.842 1.48088 127.787 1.86203 125.867 2.63514C124.254 3.27582 122.839 4.3323 121.767 5.69714C120.809 6.9301 120.292 8.44873 120.299 10.0101C120.253 11.3635 120.68 12.6905 121.508 13.7621C122.317 14.7422 123.316 15.549 124.444 16.1341C125.595 16.7381 127.178 17.4425 129.193 18.2471C130.894 18.873 132.552 19.6079 134.158 20.4471C135.332 21.0554 136.362 21.9078 137.18 22.9471C137.797 23.7345 138.132 24.7066 138.13 25.7071C138.129 26.6602 137.843 27.5913 137.31 28.3811C136.704 29.265 135.868 29.966 134.892 30.4081C133.732 30.9525 132.46 31.2182 131.179 31.1841C128.721 31.3006 126.293 30.6033 124.271 29.2001C122.624 27.9632 121.401 26.2456 120.771 24.2841L119.994 24.3271C120.419 26.5775 121.685 28.5817 123.534 29.9331C125.491 31.4571 128.283 32.2191 131.91 32.2191C133.916 32.2808 135.91 31.8826 137.739 31.0551C139.194 30.3858 140.434 29.3258 141.322 27.9931C142.095 26.8614 142.516 25.5258 142.531 24.1551C142.543 23.4816 142.442 22.8109 142.231 22.1711C141.843 21.0582 141.156 20.0736 140.245 19.3251C139.324 18.52 138.292 17.8518 137.18 17.3411C136.057 16.7951 134.604 16.1915 132.819 15.5301C131.007 14.8684 129.235 14.1052 127.509 13.2441C126.373 12.6553 125.44 11.7386 124.832 10.6131C124.467 9.87544 124.275 9.06418 124.271 8.24114C124.269 7.15305 124.651 6.09921 125.35 5.26514C126.125 4.30395 127.137 3.56095 128.286 3.10914C129.587 2.57961 130.981 2.31577 132.386 2.33314C134.306 2.25981 136.203 2.77214 137.825 3.80214H137.826ZM169.972 16.8261C169.972 10.8175 170.03 5.78614 170.145 1.73214H165.655C165.77 6.90747 165.828 11.0908 165.828 14.2821V17.1281H150.284V14.2801C150.284 11.0888 150.342 6.90547 150.457 1.73014H145.967C146.111 6.8188 146.183 11.8501 146.183 16.8241C146.183 21.7695 146.111 26.8008 145.967 31.9181H150.457C150.342 28.1521 150.284 23.5521 150.284 18.1181H165.827C165.827 23.5521 165.769 28.1521 165.654 31.9181H170.144C170.029 27.8081 169.971 22.7775 169.971 16.8261H169.972ZM2.159 19.2221C2.58529 19.2215 3.00183 19.0946 3.35599 18.8573C3.71015 18.6201 3.98602 18.2831 4.14874 17.8891C4.31147 17.4951 4.35373 17.0617 4.27021 16.6437C4.18668 16.2257 3.9811 15.8418 3.67946 15.5406C3.37782 15.2393 2.99365 15.0343 2.57551 14.9513C2.15737 14.8684 1.72403 14.9113 1.33024 15.0745C0.93646 15.2378 0.599916 15.5142 0.363144 15.8686C0.126372 16.2231 4.12685e-07 16.6398 0 17.0661C0.000530211 17.6383 0.228262 18.1868 0.633124 18.5911C1.03799 18.9954 1.58684 19.2224 2.159 19.2221ZM179.653 17.0661C179.654 17.4933 179.527 17.911 179.291 18.2664C179.054 18.6219 178.717 18.8991 178.322 19.0629C177.928 19.2268 177.494 19.27 177.075 19.187C176.656 19.1041 176.271 18.8987 175.968 18.5968C175.666 18.295 175.46 17.9103 175.377 17.4914C175.293 17.0726 175.336 16.6383 175.499 16.2436C175.662 15.8489 175.939 15.5116 176.294 15.2742C176.649 15.0368 177.067 14.9101 177.494 14.9101C178.066 14.9099 178.615 15.1368 179.02 15.5411C179.425 15.9454 179.652 16.494 179.653 17.0661V17.0661Z" fill="white"/>
<path fill-rule="evenodd" clip-rule="evenodd" d="M20.093 42.5733H15.958V50.8263H16.778V46.7813H20.097V45.9683H16.774V43.3873H20.093V42.5733ZM25.558 42.5733H24.727V50.8263H28.727V50.0263H25.558V42.5733ZM40.307 43.6173C39.8958 43.2068 39.4054 42.8842 38.8656 42.6691C38.3258 42.4541 37.7479 42.3511 37.167 42.3663C36.4103 42.3656 35.6669 42.5656 35.0126 42.9459C34.3584 43.3263 33.8168 43.8733 33.443 44.5313C33.0623 45.2035 32.8647 45.9638 32.87 46.7363C32.8609 47.3028 32.9684 47.8651 33.1859 48.3882C33.4033 48.9114 33.7261 49.3842 34.134 49.7773C34.5381 50.1867 35.0214 50.5093 35.5544 50.7255C36.0874 50.9416 36.659 51.0467 37.234 51.0343C38.092 51.0313 38.9299 50.7747 39.6425 50.2968C40.355 49.8189 40.9104 49.141 41.2387 48.3483C41.567 47.5556 41.6536 46.6836 41.4877 45.8418C41.3217 45 40.9106 44.2261 40.306 43.6173H40.307ZM35.471 43.6513C35.9963 43.3392 36.596 43.1744 37.207 43.1743C37.8266 43.1739 38.4351 43.3386 38.97 43.6513C39.507 43.9508 39.9522 44.3909 40.258 44.9243C40.5683 45.4631 40.7276 46.0756 40.719 46.6973C40.7275 47.3276 40.5684 47.9487 40.258 48.4973C39.959 49.0315 39.5176 49.4722 38.983 49.7703C38.4431 50.0802 37.8305 50.241 37.208 50.2363C36.7488 50.2386 36.2938 50.1495 35.8694 49.9741C35.445 49.7987 35.0598 49.5406 34.7361 49.2149C34.4125 48.8891 34.157 48.5022 33.9844 48.0767C33.8118 47.6511 33.7257 47.1955 33.731 46.7363C33.7232 46.1062 33.8823 45.4852 34.192 44.9363C34.4953 44.401 34.9371 43.9572 35.471 43.6513V43.6513ZM46.8 42.5743H45.952L48.283 50.8273H48.441L50.941 44.5833L53.39 50.8273H53.547L55.918 42.5743H55.075L53.358 48.5203L51.018 42.5733H50.85L48.48 48.5203L46.8 42.5743ZM65.392 42.5743H60.658V50.8273H65.358V50.0103H61.482V46.7763H65.358V45.9683H61.482V43.3873H65.392V42.5743ZM71.7 42.5743H70.058V50.8273H70.884V46.9893H71.356L74.322 50.8273H75.344L72.373 46.9893C72.928 47.01 73.4817 46.9206 74.002 46.7263C74.3742 46.5667 74.6884 46.2965 74.902 45.9523C75.1197 45.5964 75.2308 45.1855 75.222 44.7683C75.2368 44.2744 75.072 43.7919 74.758 43.4103C74.4517 43.0399 74.0285 42.7846 73.558 42.6863C72.9432 42.5909 72.3208 42.5531 71.699 42.5733L71.7 42.5743ZM70.88 46.1873V43.3823H72.335C72.7447 43.361 73.155 43.4104 73.548 43.5283C73.791 43.625 73.9975 43.7957 74.138 44.0163C74.2874 44.2385 74.3658 44.5007 74.363 44.7683C74.3659 45.0429 74.2876 45.3121 74.138 45.5423C73.9913 45.7713 73.7745 45.9466 73.52 46.0423C73.1261 46.1659 72.7134 46.2191 72.301 46.1993L70.88 46.1873ZM88.219 42.5743H86.59V50.8273H88.858C89.5723 50.8641 90.2724 50.6184 90.807 50.1433C91.0411 49.9307 91.2273 49.6706 91.3532 49.3804C91.479 49.0902 91.5417 48.7766 91.537 48.4603C91.5384 48.1491 91.4701 47.8416 91.337 47.5603C91.2138 47.2851 91.0295 47.0416 90.798 46.8483C90.5017 46.6159 90.1646 46.4408 89.804 46.3323C90.1299 46.1666 90.4039 45.9144 90.596 45.6033C90.7793 45.2866 90.8725 44.9258 90.8657 44.5599C90.8588 44.194 90.7521 43.837 90.557 43.5273C90.3599 43.2099 90.0697 42.9609 89.726 42.8143C89.2446 42.6336 88.7317 42.5516 88.218 42.5733L88.219 42.5743ZM87.399 46.0243V43.3823H88.354C88.798 43.345 89.2416 43.4596 89.612 43.7073C89.7437 43.8131 89.8485 43.9485 89.918 44.1025C89.9875 44.2564 90.0197 44.4246 90.012 44.5933C90.0139 44.8675 89.9315 45.1355 89.776 45.3613C89.6181 45.59 89.3951 45.766 89.136 45.8663C88.7267 45.9904 88.2992 46.0435 87.872 46.0233L87.399 46.0243ZM87.399 50.0193V46.8543H87.865C88.3558 46.8376 88.847 46.8711 89.331 46.9543C89.7111 47.033 90.0567 47.2293 90.319 47.5153C90.5319 47.7569 90.6575 48.063 90.6757 48.3845C90.6938 48.706 90.6034 49.0243 90.419 49.2883C90.2543 49.5362 90.0197 49.7297 89.745 49.8443C89.3174 49.9817 88.8686 50.0406 88.42 50.0183L87.399 50.0193ZM103.44 43.6193C103.029 43.2088 102.538 42.8862 101.999 42.6711C101.459 42.4561 100.881 42.3531 100.3 42.3683C99.5432 42.3675 98.7998 42.5674 98.1456 42.9478C97.4913 43.3281 96.9497 43.8753 96.576 44.5333C96.1953 45.2055 95.9977 45.9658 96.003 46.7383C95.9938 47.3048 96.1013 47.8671 96.3188 48.3903C96.5362 48.9134 96.859 49.3862 97.267 49.7793C97.671 50.1887 98.1543 50.5114 98.6874 50.7275C99.2204 50.9437 99.7919 51.0487 100.367 51.0363C101.225 51.0335 102.063 50.7771 102.776 50.2992C103.489 49.8214 104.044 49.1435 104.372 48.3508C104.701 47.558 104.788 46.6859 104.622 45.844C104.456 45.0022 104.045 44.2282 103.44 43.6193V43.6193ZM98.604 43.6533C99.1293 43.3412 99.729 43.1764 100.34 43.1763C100.96 43.1758 101.569 43.3405 102.104 43.6533C102.64 43.9533 103.085 44.3933 103.39 44.9263C103.7 45.4653 103.859 46.0777 103.85 46.6993C103.859 47.3295 103.7 47.9506 103.39 48.4993C103.091 49.0337 102.65 49.4745 102.115 49.7723C101.575 50.0821 100.963 50.243 100.34 50.2383C99.8808 50.2407 99.4257 50.1517 99.0012 49.9764C98.5768 49.8011 98.1915 49.543 97.8678 49.2172C97.5442 48.8914 97.2886 48.5044 97.1161 48.0788C96.9436 47.6532 96.8576 47.1975 96.863 46.7383C96.8551 46.1081 97.0141 45.4871 97.324 44.9383C97.6271 44.4023 98.0689 43.9577 98.603 43.6513L98.604 43.6533ZM110.404 42.5763H109.578V47.5583C109.552 48.1421 109.604 48.7268 109.73 49.2973C109.889 49.8181 110.227 50.2656 110.685 50.5603C111.195 50.8882 111.792 51.0545 112.398 51.0373C112.962 51.055 113.515 50.8785 113.965 50.5373C114.369 50.2422 114.672 49.8283 114.83 49.3533C114.992 48.771 115.066 48.1676 115.049 47.5633V42.5733H114.223V47.5553C114.24 47.9871 114.212 48.4195 114.138 48.8453C114.069 49.1175 113.943 49.3719 113.768 49.5913C113.598 49.7983 113.383 49.9635 113.139 50.0743C112.893 50.1895 112.624 50.2489 112.352 50.2483C112.027 50.2459 111.707 50.1711 111.414 50.0293C111.14 49.9093 110.902 49.7197 110.723 49.4793C110.564 49.2328 110.466 48.9521 110.436 48.6603C110.405 48.2929 110.394 47.924 110.402 47.5553L110.404 42.5763ZM119.458 42.5763V43.3763H121.306V50.8263H122.148V43.3763H123.99V42.5763H119.458ZM129.074 42.5763H128.248V50.8293H129.074V42.5763ZM142.318 51.4763L141.093 49.9273C141.548 49.5119 141.913 49.008 142.166 48.4463C142.403 47.8955 142.522 47.301 142.514 46.7013C142.527 46.1286 142.421 45.5595 142.203 45.0295C141.986 44.4995 141.661 44.0202 141.25 43.6213C140.847 43.2117 140.365 42.8888 139.833 42.6726C139.3 42.4565 138.729 42.3515 138.155 42.3643C137.387 42.3575 136.631 42.5549 135.964 42.9363C135.305 43.3146 134.762 43.8653 134.392 44.5293C134.008 45.2004 133.808 45.9611 133.813 46.7343C133.804 47.3008 133.911 47.8631 134.129 48.3862C134.346 48.9094 134.669 49.3822 135.077 49.7753C135.78 50.4563 136.688 50.8874 137.66 51.0021C138.632 51.1168 139.615 50.9089 140.458 50.4103L141.301 51.4763H142.318ZM141.661 46.6963C141.671 47.1789 141.581 47.6583 141.395 48.1038C141.209 48.5493 140.932 48.9511 140.582 49.2833L139.105 47.4203H138.1L139.942 49.7543C139.396 50.0734 138.774 50.2382 138.142 50.2313C137.683 50.2329 137.229 50.1433 136.805 49.9676C136.381 49.792 135.997 49.5337 135.674 49.208C135.351 48.8823 135.096 48.4956 134.924 48.0704C134.751 47.6452 134.666 47.19 134.671 46.7313C134.663 46.1011 134.822 45.4801 135.132 44.9313C135.434 44.3941 135.877 43.9497 136.413 43.6463C136.942 43.3332 137.545 43.1685 138.16 43.1693C138.776 43.17 139.381 43.3346 139.912 43.6463C140.448 43.9462 140.893 44.3862 141.198 44.9193C141.509 45.4598 141.667 46.0741 141.658 46.6973L141.661 46.6963ZM148.227 42.5723H147.401V47.5543C147.375 48.1381 147.426 48.7228 147.553 49.2933C147.712 49.8141 148.05 50.2616 148.508 50.5563C149.018 50.8841 149.615 51.0504 150.221 51.0333C150.785 51.0509 151.338 50.8744 151.788 50.5333C152.192 50.2382 152.495 49.8243 152.653 49.3493C152.815 48.767 152.889 48.1636 152.872 47.5593V42.5733H152.046V47.5553C152.063 47.9871 152.034 48.4195 151.961 48.8453C151.892 49.1177 151.766 49.3721 151.59 49.5913C151.42 49.7985 151.205 49.9637 150.961 50.0743C150.715 50.1893 150.447 50.2487 150.175 50.2483C149.85 50.2459 149.53 50.1711 149.237 50.0293C148.963 49.9093 148.724 49.7197 148.546 49.4793C148.387 49.233 148.288 48.9522 148.259 48.6603C148.228 48.2929 148.217 47.924 148.225 47.5553L148.227 42.5723ZM162.842 42.5723H158.107V50.8253H162.807V50.0103H158.932V46.7763H162.807V45.9683H158.932V43.3873H162.841L162.842 42.5723Z" fill="white"/>
</svg>
