<svg width="250" height="74" viewBox="0 0 259 74" fill="none" xmlns="http://www.w3.org/2000/svg">
<path fill-rule="evenodd" clip-rule="evenodd" d="M41.564 45.5823V44.1523L19.964 44.2763C19.798 35.9863 19.715 29.251 19.715 24.0703C19.715 16.8583 19.8187 9.52168 20.026 2.06035H13.555C13.7623 9.39368 13.866 16.6473 13.866 23.8213C13.866 30.9507 13.7623 38.2043 13.555 45.5823H41.564ZM75.815 45.5823V44.1523L52.972 44.2763C52.8473 39.0537 52.785 33.4373 52.785 27.4273H68.159V25.9973H52.785V21.7073C52.785 15.158 52.8473 9.06501 52.972 3.42835H74.259V2.05735H46.559C46.7663 9.39068 46.87 16.6443 46.87 23.8183C46.87 30.9477 46.7663 38.2013 46.559 45.5793L75.815 45.5823ZM108.294 5.16635C104.686 3.01625 100.541 1.93788 96.343 2.05735H80.782C80.9893 9.39068 81.093 16.6443 81.093 23.8183C81.093 30.9477 80.9893 38.2013 80.782 45.5793H95.6C99.9688 45.7114 104.292 44.6589 108.111 42.5333C111.403 40.6605 114.084 37.8752 115.829 34.5133C117.56 31.2383 118.457 27.5868 118.439 23.8823C118.452 20.2049 117.576 16.5788 115.887 13.3123C114.171 9.93809 111.539 7.11509 108.294 5.16635ZM103.813 41.4143C100.713 43.3885 97.0914 44.3849 93.418 44.2743H87.193C87.027 35.9017 86.944 29.104 86.944 23.8813C86.944 18.6587 87.027 11.861 87.193 3.48835L94.04 3.42635C97.5946 3.32487 101.094 4.3222 104.061 6.28235C106.815 8.15727 108.992 10.7623 110.348 13.8053C111.802 16.9192 112.546 20.3169 112.527 23.7533C112.546 27.2296 111.802 30.6677 110.348 33.8253C108.916 36.9125 106.653 39.5402 103.812 41.4143H103.813ZM147.093 46.4503C148.468 46.4348 149.84 46.3309 151.201 46.1393C154.788 45.7272 158.203 44.3761 161.101 42.2223C163.769 40.1992 165.87 37.5224 167.201 34.4503C168.571 31.3795 169.271 28.052 169.255 24.6893C169.267 20.7195 168.35 16.8019 166.578 13.2493C164.73 9.48644 161.842 6.33248 158.256 4.16156C154.669 1.99065 150.536 0.893876 146.345 1.00135C145.515 1.00135 144.893 1.02201 144.478 1.06335C140.455 1.22081 136.546 2.44382 133.15 4.60735C130.189 6.55516 127.803 9.26012 126.241 12.4413C124.739 15.6289 123.973 19.1136 124 22.6373C123.993 26.6258 124.909 30.5618 126.676 34.1373C128.538 37.9326 131.453 41.1116 135.074 43.2945C138.694 45.4774 142.866 46.572 147.092 46.4473L147.093 46.4503ZM157.737 42.0363C155.862 43.8225 153.461 44.9563 150.89 45.2693C150.129 45.3882 149.36 45.4507 148.59 45.4563C144.991 45.505 141.497 44.2457 138.756 41.9123C135.858 39.4007 133.615 36.2211 132.221 32.6483C130.737 28.93 129.977 24.9628 129.98 20.9593C129.945 17.8439 130.472 14.7478 131.536 11.8193C132.518 9.13441 134.218 6.76986 136.449 4.98235C138.781 3.14915 141.635 2.10331 144.6 1.99535C146.378 1.84219 148.169 2.04363 149.868 2.58797C151.567 3.13232 153.142 4.00872 154.5 5.16635C157.459 7.62212 159.715 10.8188 161.036 14.4303C162.524 18.2557 163.284 22.3256 163.277 26.4303C163.301 29.428 162.839 32.4097 161.908 35.2593C161.078 37.8185 159.647 40.1419 157.736 42.0353L157.737 42.0363ZM198.7 5.04235C200.636 6.25051 202.173 8.00206 203.119 10.0783H204.364C203.574 7.84988 202.118 5.91801 200.194 4.54435C197.844 2.81631 195.016 1.86063 192.1 1.80935C191.685 1.76801 191.042 1.74735 190.171 1.74735C187.188 1.69963 184.225 2.24943 181.457 3.36435C179.13 4.28866 177.09 5.81307 175.544 7.78235C174.163 9.55966 173.418 11.7487 173.428 13.9993C173.361 15.9503 173.978 17.8634 175.171 19.4083C176.338 20.8215 177.777 21.9847 179.404 22.8283C181.064 23.699 183.346 24.7147 186.251 25.8753C188.703 26.7775 191.094 27.8366 193.409 29.0463C195.102 29.9238 196.587 31.1533 197.766 32.6523C198.656 33.7876 199.138 35.189 199.135 36.6313C199.133 38.0055 198.721 39.3478 197.952 40.4863C197.079 41.7605 195.873 42.7711 194.466 43.4083C192.793 44.1932 190.96 44.5764 189.113 44.5273C185.005 44.5273 181.685 43.574 179.154 41.6673C176.78 39.8833 175.019 37.4068 174.112 34.5793L172.992 34.6413C173.604 37.8855 175.427 40.7753 178.092 42.7243C180.914 44.9243 184.939 46.0243 190.167 46.0243C193.058 46.1124 195.932 45.5381 198.567 44.3453C200.664 43.3806 202.453 41.8526 203.733 39.9313C204.848 38.2995 205.455 36.3737 205.476 34.3973C205.493 33.4263 205.345 32.4594 205.04 31.5373C204.48 29.934 203.489 28.5157 202.177 27.4373C200.849 26.2766 199.361 25.3134 197.758 24.5773C196.14 23.79 194.044 22.9197 191.471 21.9663C188.859 21.011 186.303 19.9092 183.815 18.6663C182.178 17.8174 180.833 16.4959 179.956 14.8733C179.43 13.8097 179.153 12.64 179.147 11.4533C179.145 9.88477 179.696 8.36561 180.703 7.16335C181.82 5.77748 183.279 4.70606 184.935 4.05435C186.812 3.29055 188.822 2.91008 190.848 2.93535C193.619 2.82418 196.357 3.55909 198.7 5.04235ZM245.044 23.8193C245.044 15.1567 245.127 7.90301 245.293 2.05835H238.82C238.986 9.51901 239.069 15.55 239.069 20.1513V24.2513H216.659V20.1513C216.659 15.5513 216.742 9.52035 216.908 2.05835H210.435C210.642 9.39168 210.746 16.6453 210.746 23.8193C210.746 30.9487 210.642 38.2023 210.435 45.5803H216.908C216.742 40.1503 216.659 33.517 216.659 25.6803H239.067C239.067 33.5143 238.984 40.1477 238.818 45.5803H245.291C245.125 39.653 245.042 32.399 245.042 23.8183L245.044 23.8193ZM3.112 27.2733C3.72677 27.2728 4.32757 27.0899 4.83845 26.7479C5.34933 26.4059 5.74735 25.9202 5.9822 25.352C6.21705 24.7839 6.27819 24.1589 6.1579 23.556C6.0376 22.9531 5.74126 22.3994 5.30633 21.9649C4.87141 21.5304 4.31744 21.2346 3.71443 21.1149C3.11143 20.9951 2.48647 21.0569 1.91855 21.2923C1.35062 21.5277 0.865242 21.9262 0.523753 22.4374C0.182265 22.9486 2.86211e-07 23.5496 0 24.1643C0.000131264 24.5728 0.0807369 24.9773 0.237213 25.3546C0.393689 25.732 0.62297 26.0748 0.911959 26.3635C1.20095 26.6522 1.54398 26.8812 1.92147 27.0373C2.29896 27.1934 2.7035 27.2736 3.112 27.2733ZM259 24.1643C259.001 24.78 258.819 25.3819 258.477 25.8941C258.135 26.4063 257.65 26.8056 257.081 27.0416C256.512 27.2776 255.887 27.3397 255.283 27.2199C254.679 27.1002 254.124 26.804 253.689 26.3689C253.253 25.9338 252.956 25.3793 252.836 24.7756C252.716 24.1718 252.777 23.5459 253.013 22.9771C253.248 22.4083 253.647 21.9221 254.159 21.58C254.671 21.2379 255.272 21.0553 255.888 21.0553C256.297 21.0551 256.701 21.1353 257.079 21.2914C257.456 21.4475 257.799 21.6765 258.088 21.9652C258.377 22.2539 258.606 22.5967 258.763 22.974C258.919 23.3514 259 23.7558 259 24.1643Z" fill="#41423A"/>
<path fill-rule="evenodd" clip-rule="evenodd" d="M28.9669 60.9383H23.0039V72.8383H24.1859V67.0043H28.9709V65.8323H24.1819V62.1113H28.9669V60.9383ZM36.8459 60.9383H35.6459V72.8383H41.4199V71.6833H36.8459V60.9383ZM58.1099 62.4383C57.5167 61.8471 56.8095 61.3827 56.0313 61.0733C55.2531 60.7638 54.4201 60.6158 53.5829 60.6383C52.492 60.6374 51.4203 60.9259 50.4773 61.4744C49.5342 62.0228 48.7536 62.8116 48.2149 63.7603C47.6661 64.7294 47.3812 65.8256 47.3889 66.9393C47.3758 67.7559 47.5308 68.5665 47.8442 69.3207C48.1577 70.0749 48.6229 70.7565 49.2109 71.3233C49.7937 71.9133 50.4906 72.3783 51.2592 72.6899C52.0278 73.0014 52.8518 73.153 53.6809 73.1353C54.9176 73.1307 56.1253 72.7607 57.1524 72.0717C58.1794 71.3828 58.9798 70.4056 59.4531 69.263C59.9264 68.1205 60.0514 66.8635 59.8124 65.6501C59.5734 64.4367 58.9811 63.3211 58.1099 62.4433V62.4383ZM51.1379 62.4873C51.8943 62.0377 52.7579 61.8 53.6379 61.7993C54.5313 61.7987 55.4087 62.0362 56.1799 62.4873C56.9534 62.9196 57.5947 63.5543 58.0349 64.3233C58.4845 65.1008 58.7156 65.9853 58.7039 66.8833C58.7151 67.7895 58.486 68.6825 58.0399 69.4713C57.609 70.2417 56.9727 70.8773 56.2019 71.3073C55.4234 71.7538 54.5403 71.9854 53.6429 71.9783C52.9815 71.9817 52.326 71.8534 51.7145 71.6011C51.1031 71.3487 50.548 70.9772 50.0815 70.5083C49.615 70.0394 49.2464 69.4823 48.9972 68.8696C48.748 68.2569 48.6231 67.6007 48.6299 66.9393C48.6176 66.0292 48.8467 65.1321 49.2939 64.3393C49.7319 63.5692 50.3688 62.931 51.1379 62.4913V62.4873ZM67.4709 60.9343H66.2479L69.6079 72.8343H69.8349L73.4349 63.8343L76.9659 72.8343H77.1929L80.6099 60.9343H79.3949L76.9259 69.5073L73.5489 60.9343H73.3069L69.8899 69.5073L67.4709 60.9343ZM94.2709 60.9343H87.4449V72.8343H94.2229V71.6633H88.6349V66.9973H94.2229V65.8323H88.6349V62.1113H94.2709V60.9343ZM103.364 60.9343H100.994V72.8343H102.184V67.3033H102.864L107.139 72.8363H108.613L104.33 67.3033C105.13 67.3328 105.928 67.2036 106.678 66.9233C107.215 66.6935 107.669 66.3039 107.978 65.8073C108.292 65.2942 108.452 64.7018 108.44 64.1003C108.463 63.3892 108.227 62.6939 107.776 62.1433C107.336 61.6104 106.728 61.2424 106.052 61.0993C105.164 60.9621 104.265 60.9082 103.367 60.9383L103.364 60.9343ZM102.182 66.1433V62.1033H104.282C104.873 62.0725 105.464 62.1435 106.031 62.3133C106.38 62.4521 106.678 62.6969 106.881 63.0133C107.096 63.3336 107.209 63.7115 107.205 64.0973C107.209 64.4931 107.096 64.8814 106.881 65.2133C106.67 65.5429 106.357 65.7954 105.991 65.9333C105.423 66.1117 104.828 66.1885 104.234 66.1603L102.182 66.1433ZM127.182 60.9343H124.834V72.8343H128.104C129.134 72.8872 130.143 72.5326 130.914 71.8473C131.252 71.5407 131.52 71.1657 131.702 70.7472C131.883 70.3288 131.974 69.8764 131.967 69.4203C131.971 68.9712 131.874 68.5269 131.683 68.1203C131.505 67.7233 131.24 67.3721 130.906 67.0933C130.479 66.7578 129.993 66.5051 129.473 66.3483C129.943 66.1093 130.338 65.7458 130.615 65.2973C130.878 64.8404 131.012 64.3203 131.002 63.7929C130.992 63.2655 130.839 62.7508 130.558 62.3043C130.273 61.8467 129.854 61.4881 129.358 61.2773C128.662 61.0193 127.922 60.904 127.181 60.9383L127.182 60.9343ZM126 65.9083V62.1033H127.377C128.017 62.0496 128.657 62.215 129.191 62.5723C129.381 62.7251 129.531 62.9205 129.631 63.1425C129.731 63.3646 129.777 63.6071 129.766 63.8503C129.769 64.2458 129.65 64.6326 129.426 64.9583C129.198 65.2867 128.877 65.5392 128.504 65.6833C127.914 65.8621 127.298 65.9385 126.682 65.9093L126 65.9083ZM126 71.6673V67.1103H126.672C127.38 67.0867 128.088 67.1357 128.786 67.2563C129.334 67.3694 129.832 67.6521 130.211 68.0643C130.518 68.4124 130.699 68.8536 130.726 69.3171C130.752 69.7806 130.622 70.2395 130.357 70.6203C130.119 70.9772 129.781 71.2556 129.385 71.4203C128.768 71.6185 128.121 71.7035 127.474 71.6713L126 71.6673ZM149.126 62.4383C148.533 61.8472 147.826 61.3829 147.048 61.0735C146.27 60.764 145.437 60.616 144.6 60.6383C143.509 60.6373 142.437 60.9257 141.494 61.4742C140.551 62.0227 139.77 62.8116 139.232 63.7603C138.683 64.7294 138.398 65.8256 138.406 66.9393C138.393 67.756 138.548 68.5666 138.861 69.3208C139.174 70.075 139.64 70.7566 140.228 71.3233C140.811 71.9132 141.507 72.3781 142.276 72.6897C143.044 73.0012 143.868 73.1529 144.697 73.1353C145.934 73.1311 147.142 72.7613 148.169 72.0724C149.197 71.3834 149.998 70.4061 150.471 69.2633C150.944 68.1205 151.069 66.8632 150.83 65.6496C150.591 64.4359 149.999 63.3201 149.127 62.4423L149.126 62.4383ZM142.154 62.4873C142.91 62.0377 143.774 61.8 144.654 61.7993C145.548 61.7988 146.425 62.0362 147.197 62.4873C147.97 62.9199 148.611 63.5546 149.051 64.3233C149.498 65.1002 149.727 65.9831 149.715 66.8793C149.726 67.7855 149.497 68.6784 149.051 69.4673C148.62 70.2378 147.984 70.8734 147.213 71.3033C146.434 71.7497 145.551 71.9813 144.654 71.9743C143.993 71.9777 143.337 71.8494 142.726 71.597C142.114 71.3447 141.559 70.9732 141.093 70.5042C140.626 70.0353 140.258 69.4783 140.009 68.8656C139.76 68.2528 139.635 67.5967 139.642 66.9353C139.629 66.0252 139.859 65.128 140.306 64.3353C140.745 63.5663 141.383 62.9295 142.153 62.4913L142.154 62.4873ZM159.167 60.9343H157.977V68.1173C157.94 68.959 158.014 69.8018 158.196 70.6243C158.425 71.375 158.913 72.02 159.573 72.4443C160.308 72.917 161.168 73.1568 162.042 73.1323C162.856 73.1557 163.654 72.8987 164.301 72.4043C164.884 71.979 165.32 71.3827 165.548 70.6983C165.782 69.859 165.889 68.9893 165.864 68.1183V60.9383H164.674V68.1213C164.699 68.7439 164.658 69.3673 164.552 69.9813C164.453 70.374 164.271 70.7408 164.018 71.0573C163.773 71.3571 163.463 71.5966 163.111 71.7573C162.756 71.9229 162.369 72.0083 161.977 72.0073C161.508 72.0041 161.047 71.8965 160.625 71.6923C160.228 71.5198 159.883 71.2464 159.625 70.8993C159.396 70.5437 159.255 70.139 159.212 69.7183C159.167 69.1882 159.151 68.6562 159.163 68.1243L159.167 60.9343ZM172.22 60.9343V62.0913H174.885V72.8363H176.099V62.0953H178.755V60.9383L172.22 60.9343ZM186.083 60.9343H184.892V72.8343H186.083V60.9343ZM205.177 73.7703L203.411 71.5383C204.067 70.9395 204.593 70.213 204.958 69.4033C205.299 68.609 205.469 67.7518 205.458 66.8873C205.476 66.0615 205.324 65.2409 205.01 64.4767C204.697 63.7125 204.229 63.0213 203.636 62.4463C203.055 61.8558 202.36 61.3903 201.592 61.0787C200.825 60.7671 200.002 60.6158 199.174 60.6343C198.067 60.6247 196.977 60.9095 196.016 61.4593C195.065 62.0055 194.281 62.8007 193.749 63.7593C193.195 64.7268 192.908 65.8236 192.915 66.9383C192.902 67.7549 193.057 68.5655 193.37 69.3197C193.684 70.0739 194.149 70.7555 194.737 71.3223C195.751 72.3036 197.059 72.9246 198.461 73.0898C199.863 73.2549 201.279 72.9551 202.494 72.2363L203.709 73.7733L205.177 73.7703ZM204.23 66.8793C204.244 67.5749 204.114 68.2658 203.846 68.9079C203.578 69.55 203.179 70.1291 202.675 70.6083L200.546 67.9223H199.094L201.749 71.2873C200.963 71.7463 200.068 71.9838 199.158 71.9743C198.498 71.9761 197.843 71.8467 197.233 71.5936C196.623 71.3405 196.07 70.9687 195.605 70.5C195.139 70.0312 194.772 69.4747 194.524 68.8628C194.275 68.2508 194.151 67.5957 194.158 66.9353C194.145 66.0252 194.375 65.128 194.822 64.3353C195.257 63.5611 195.895 62.9207 196.668 62.4833C197.43 62.0317 198.301 61.7941 199.187 61.7953C200.075 61.7962 200.947 62.0337 201.713 62.4833C202.486 62.9157 203.128 63.5504 203.568 64.3193C204.015 65.099 204.243 65.9848 204.228 66.8833L204.23 66.8793ZM213.696 60.9343H212.504V68.1173C212.467 68.959 212.54 69.8019 212.723 70.6243C212.952 71.3748 213.439 72.0198 214.099 72.4443C214.834 72.9171 215.695 73.1569 216.569 73.1323C217.383 73.1556 218.181 72.8986 218.828 72.4043C219.411 71.979 219.847 71.3827 220.075 70.6983C220.309 69.8591 220.416 68.9893 220.391 68.1183V60.9383H219.204V68.1213C219.229 68.7439 219.188 69.3673 219.082 69.9813C218.983 70.3741 218.8 70.7411 218.547 71.0573C218.303 71.3572 217.993 71.5967 217.641 71.7573C217.286 71.9229 216.899 72.0082 216.507 72.0073C216.038 72.0041 215.576 71.8965 215.154 71.6923C214.757 71.5199 214.412 71.2465 214.154 70.8993C213.924 70.544 213.783 70.1392 213.741 69.7183C213.696 69.1882 213.68 68.6562 213.692 68.1243L213.696 60.9343ZM234.765 60.9343H227.939V72.8343H234.716V71.6633H229.129V66.9973H234.716V65.8323H229.129V62.1113H234.765V60.9343Z" fill="#41423A"/>
</svg>
