<svg width="94" height="83" viewBox="0 0 94 83" fill="none" xmlns="http://www.w3.org/2000/svg">
<path d="M91.1647 82.3438H3.53766C3.29434 82.3496 3.05233 82.3057 2.82587 82.2145C2.5994 82.1234 2.39307 81.987 2.21896 81.8132C2.04486 81.6395 1.9065 81.4319 1.81204 81.2028C1.71759 80.9736 1.66895 80.7274 1.66895 80.4788C1.66895 80.2301 1.71759 79.984 1.81204 79.7548C1.9065 79.5256 2.04486 79.3181 2.21896 79.1443C2.39307 78.9706 2.5994 78.8341 2.82587 78.743C3.05233 78.6519 3.29434 78.608 3.53766 78.6138H91.1647C91.408 78.608 91.65 78.6519 91.8765 78.743C92.1029 78.8341 92.3093 78.9706 92.4834 79.1443C92.6575 79.3181 92.7958 79.5256 92.8903 79.7548C92.9847 79.984 93.0334 80.2301 93.0334 80.4788C93.0334 80.7274 92.9847 80.9736 92.8903 81.2028C92.7958 81.4319 92.6575 81.6395 92.4834 81.8132C92.3093 81.987 92.1029 82.1234 91.8765 82.2145C91.65 82.3057 91.408 82.3496 91.1647 82.3438Z" fill="#A34C68"/>
<path d="M12.6654 82.3442C12.424 82.3502 12.1839 82.3061 11.9597 82.2145C11.7355 82.1228 11.5318 81.9857 11.3611 81.8112C11.1903 81.6368 11.0561 81.4287 10.9664 81.1996C10.8767 80.9706 10.8335 80.7253 10.8394 80.4787V45.8453C10.8506 45.3582 11.0478 44.8949 11.3889 44.5545C11.73 44.214 12.188 44.0234 12.6649 44.0234C13.1418 44.0234 13.5997 44.214 13.9409 44.5545C14.282 44.8949 14.4792 45.3582 14.4904 45.8453V80.4787C14.4592 80.9628 14.2569 81.4189 13.9212 81.762C13.5855 82.1052 13.1392 82.3121 12.6654 82.3442Z" fill="#A34C68"/>
<path d="M34.3109 82.3442C34.0695 82.3502 33.8294 82.3061 33.6052 82.2145C33.381 82.1228 33.1774 81.9857 33.0066 81.8112C32.8359 81.6368 32.7016 81.4287 32.6119 81.1996C32.5222 80.9706 32.479 80.7253 32.4849 80.4787V45.8453C32.4961 45.3582 32.6933 44.8949 33.0344 44.5545C33.3756 44.214 33.8335 44.0234 34.3104 44.0234C34.7873 44.0234 35.2453 44.214 35.5864 44.5545C35.9275 44.8949 36.1247 45.3582 36.1359 45.8453V80.4787C36.1045 80.9627 35.9022 81.4187 35.5665 81.7618C35.2308 82.1049 34.7847 82.3118 34.3109 82.3442Z" fill="#A34C68"/>
<path d="M82.0365 82.3442C81.7951 82.3502 81.555 82.3061 81.3308 82.2145C81.1066 82.1228 80.9029 81.9857 80.7322 81.8112C80.5614 81.6368 80.4272 81.4287 80.3375 81.1996C80.2478 80.9706 80.2046 80.7253 80.2105 80.4787V45.8453C80.2217 45.3582 80.4189 44.8949 80.76 44.5545C81.1011 44.214 81.5591 44.0234 82.036 44.0234C82.5129 44.0234 82.9708 44.214 83.312 44.5545C83.6531 44.8949 83.8503 45.3582 83.8615 45.8453V80.4787C83.8301 80.9627 83.6277 81.4187 83.2921 81.7618C82.9564 82.1049 82.5103 82.3118 82.0365 82.3442Z" fill="#A34C68"/>
<path d="M81.5152 39.1813C79.9079 39.1897 78.3157 38.8633 76.8361 38.222C75.3564 37.5807 74.0202 36.6379 72.9092 35.4513C71.8139 36.6587 70.4807 37.6154 68.9974 38.2583C67.514 38.9012 65.9142 39.2158 64.3032 39.1813C62.6959 39.1897 61.1038 38.8633 59.6241 38.222C58.1444 37.5807 56.8082 36.6379 55.6972 35.4513C54.602 36.6588 53.2688 37.6155 51.7854 38.2584C50.302 38.9013 48.7022 39.2158 47.0912 39.1813C45.4839 39.1897 43.8917 38.8633 42.4121 38.222C40.9324 37.5807 39.5962 36.6379 38.4852 35.4513C37.3899 36.6587 36.0567 37.6154 34.5734 38.2583C33.09 38.9012 31.4901 39.2158 29.8792 39.1813C28.2719 39.1897 26.6797 38.8633 25.2001 38.222C23.7204 37.5807 22.3842 36.6379 21.2732 35.4513C20.178 36.6588 18.8448 37.6155 17.3614 38.2584C15.878 38.9013 14.2781 39.2158 12.6672 39.1813C11.1239 39.1882 9.5946 38.8827 8.1675 38.2826C6.7404 37.6824 5.44377 36.7995 4.35247 35.6846C3.26116 34.5698 2.39678 33.2452 1.80922 31.7873C1.22167 30.3294 0.92254 28.767 0.929158 27.1903C0.887021 26.4696 0.975521 25.7471 1.19017 25.0592V24.5259L11.1002 1.0794C11.2502 0.722845 11.5099 0.425995 11.84 0.233881C12.1701 0.0417674 12.5524 -0.0351275 12.9292 0.0148609H80.9972C81.3568 0.0551874 81.7044 0.170581 82.0185 0.353882C82.3326 0.537184 82.6065 0.784481 82.8232 1.08043L92.7332 24.5269V25.0602C92.7332 25.8591 92.9942 26.3883 92.9942 27.1914C93.0521 28.7596 92.7967 30.3234 92.2436 31.7875C91.6906 33.2516 90.8514 34.5852 89.7773 35.7071C88.7032 36.829 87.4167 37.7156 85.9962 38.3129C84.5758 38.9102 83.0511 39.2057 81.5152 39.1813ZM72.9092 30.1224C73.252 30.0767 73.5995 30.1595 73.8873 30.3554C74.175 30.5513 74.3835 30.8471 74.4742 31.188C75.2769 32.764 76.5759 34.0178 78.1617 34.7471C79.7475 35.4764 81.5275 35.6386 83.2146 35.2076C84.9016 34.7766 86.3974 33.7775 87.4605 32.3715C88.5236 30.9655 89.0921 29.2346 89.0742 27.458V26.1299L79.9462 4.01558H14.4862L5.35817 26.1299V27.458C5.36398 29.5761 6.19015 31.6058 7.65618 33.1035C9.12221 34.6013 11.1089 35.4453 13.1822 35.4513C14.618 35.4308 16.0236 35.0264 17.2589 34.2785C18.4942 33.5305 19.5162 32.465 20.2232 31.188C20.3951 30.8842 20.6422 30.632 20.9397 30.4567C21.2373 30.2813 21.5747 30.189 21.9182 30.189C22.2616 30.189 22.5991 30.2813 22.8966 30.4567C23.1941 30.632 23.4412 30.8842 23.6132 31.188C24.2949 32.4868 25.3112 33.5705 26.5522 34.3219C27.7932 35.0733 29.2116 35.4638 30.6542 35.4513C32.0618 35.4605 33.4436 35.0657 34.6424 34.312C35.8413 33.5583 36.8089 32.4759 37.4352 31.188C37.6071 30.8842 37.8542 30.632 38.1518 30.4567C38.4493 30.2813 38.7867 30.189 39.1302 30.189C39.4736 30.189 39.8111 30.2813 40.1086 30.4567C40.4061 30.632 40.6532 30.8842 40.8252 31.188C41.5069 32.4868 42.5233 33.5705 43.7642 34.3219C45.0052 35.0733 46.4237 35.4638 47.8662 35.4513C49.3022 35.431 50.708 35.0267 51.9435 34.2787C53.179 33.5307 54.2011 32.4651 54.9082 31.188C55.0726 30.9005 55.299 30.6552 55.5702 30.4705C55.8414 30.2859 56.1502 30.1668 56.4732 30.1224C56.816 30.0767 57.1635 30.1595 57.4513 30.3554C57.739 30.5513 57.9475 30.8471 58.0382 31.188C58.6908 32.4542 59.6646 33.5179 60.8575 34.2679C62.0504 35.0179 63.4187 35.4266 64.8192 35.4513C66.2482 35.3985 67.6415 34.9807 68.8717 34.2359C70.1018 33.4912 71.1297 32.4432 71.8612 31.188C71.6042 30.3891 72.3872 30.1224 72.9082 30.1224H72.9092Z" fill="#A34C68"/>
<path d="M21.5308 33.3185H21.2738C20.2308 33.0518 19.4478 32.2529 19.7088 31.1873L24.1388 3.21499C24.3998 2.14943 25.1818 1.34949 26.2248 1.61614C27.2678 1.88278 28.0508 2.6817 27.7898 3.74727L23.3558 31.7186C23.3107 32.1736 23.0961 32.5935 22.7564 32.8913C22.4166 33.1891 21.9778 33.342 21.5308 33.3185Z" fill="#A34C68"/>
<path d="M38.4838 33.3256C37.9704 33.2763 37.495 33.028 37.1553 32.6316C36.8157 32.2352 36.6376 31.7209 36.6578 31.1945L38.2228 3.21905C38.2399 2.95662 38.3075 2.70022 38.4216 2.46447C38.5357 2.22872 38.6942 2.01825 38.888 1.84507C39.0817 1.67189 39.307 1.53939 39.5508 1.45514C39.7947 1.37089 40.0524 1.33654 40.3093 1.35405C40.5661 1.37156 40.8171 1.44058 41.0479 1.55719C41.2787 1.67379 41.4846 1.83568 41.6542 2.03362C41.8237 2.23156 41.9534 2.46167 42.0358 2.71082C42.1183 2.95997 42.1519 3.22327 42.1348 3.48569L40.5698 31.456C40.4829 31.9639 40.2287 32.4263 39.8493 32.7663C39.4699 33.1064 38.988 33.3037 38.4838 33.3256Z" fill="#A34C68"/>
<path d="M55.6951 33.3259C55.4537 33.3319 55.2136 33.2877 54.9894 33.1961C54.7652 33.1045 54.5616 32.9673 54.3908 32.7929C54.2201 32.6184 54.0858 32.4104 53.9961 32.1813C53.9064 31.9523 53.8632 31.707 53.8691 31.4604L52.3051 3.47983C52.288 3.21741 52.3216 2.95411 52.4041 2.70496C52.4865 2.45581 52.6162 2.2257 52.7858 2.02776C52.9553 1.82982 53.1613 1.66793 53.392 1.55133C53.6228 1.43473 53.8738 1.3657 54.1306 1.34819C54.3875 1.33068 54.6452 1.36504 54.8891 1.44928C55.133 1.53353 55.3582 1.66603 55.552 1.83921C55.7457 2.01239 55.9042 2.22286 56.0183 2.45861C56.1324 2.69436 56.2 2.95076 56.2171 3.21319L57.7821 31.1886C57.6608 31.7067 57.4017 32.1805 57.0334 32.5576C56.6651 32.9348 56.202 33.2006 55.6951 33.3259Z" fill="#A34C68"/>
<path d="M72.6467 33.3186C71.8647 33.3186 70.8208 32.5197 70.8208 31.7198L66.3867 3.74436C66.3175 3.24974 66.4435 2.74727 66.7369 2.34751C67.0303 1.94775 67.4671 1.68344 67.9512 1.61272C68.4354 1.542 68.9272 1.67067 69.3185 1.97042C69.7098 2.27017 69.9685 2.71644 70.0377 3.21107L74.4718 30.9209C74.5341 31.1686 74.5411 31.4274 74.4923 31.6783C74.4435 31.9292 74.3402 32.1656 74.19 32.3702C74.0397 32.5748 73.8464 32.7423 73.6243 32.8603C73.4022 32.9783 73.157 33.0438 72.9068 33.052L72.6467 33.3186Z" fill="#A34C68"/>
<path d="M27.0091 65.2936C26.7677 65.2997 26.5277 65.2555 26.3034 65.1639C26.0792 65.0723 25.8756 64.9351 25.7048 64.7607C25.5341 64.5862 25.3998 64.3781 25.3101 64.1491C25.2205 63.92 25.1773 63.6748 25.1831 63.4281V57.0347C25.1943 56.5477 25.3915 56.0844 25.7326 55.7439C26.0738 55.4035 26.5318 55.2129 27.0086 55.2129C27.4855 55.2129 27.9435 55.4035 28.2846 55.7439C28.6258 56.0844 28.823 56.5477 28.8341 57.0347V63.4292C29.0951 64.4947 28.0521 65.2936 27.0091 65.2936Z" fill="#A34C68"/>
<path d="M52.3059 70.0892C51.8236 70.0781 51.3617 69.8886 51.0059 69.5559C50.8214 69.3889 50.6736 69.1838 50.5724 68.9542C50.4713 68.7245 50.4189 68.4755 50.4189 68.2237C50.4189 67.9718 50.4713 67.7229 50.5724 67.4932C50.6736 67.2636 50.8214 67.0585 51.0059 66.8915L70.8259 46.376C71.1717 46.0227 71.6408 45.8242 72.1299 45.8242C72.619 45.8242 73.0881 46.0227 73.4339 46.376C73.7797 46.7294 73.974 47.2086 73.974 47.7083C73.974 48.2079 73.7797 48.6871 73.4339 49.0405L53.6099 69.5559C53.2059 69.8037 52.7657 69.9838 52.3059 70.0892Z" fill="#A34C68"/>
<path d="M59.0862 75.684C58.6039 75.6729 58.142 75.4834 57.7862 75.1507C57.6016 74.9837 57.4539 74.7786 57.3527 74.549C57.2515 74.3193 57.1992 74.0703 57.1992 73.8185C57.1992 73.5666 57.2515 73.3177 57.3527 73.088C57.4539 72.8584 57.6016 72.6533 57.7862 72.4863L71.0862 58.6319C71.432 58.2786 71.9011 58.0801 72.3902 58.0801C72.6323 58.0801 72.8721 58.1288 73.0959 58.2235C73.3196 58.3182 73.5229 58.4569 73.6942 58.6319C73.8654 58.8068 74.0013 59.0145 74.0939 59.2431C74.1866 59.4717 74.2343 59.7167 74.2343 59.9641C74.2343 60.2115 74.1866 60.4565 74.0939 60.6851C74.0013 60.9137 73.8654 61.1214 73.6942 61.2963L60.3942 75.1507C60.0363 75.4852 59.5712 75.6749 59.0862 75.684Z" fill="#A34C68"/>
</svg>
