<svg width="89" height="83" viewBox="0 0 89 83" fill="none" xmlns="http://www.w3.org/2000/svg">
<path d="M82.3185 70.3523H80.2285C79.8278 70.3481 79.4379 70.2185 79.1115 69.981C78.785 69.7436 78.5376 69.4096 78.4025 69.0242C77.6204 66.3756 76.0386 64.0474 73.8834 62.3725C71.7281 60.6976 69.1097 59.7618 66.4025 59.6987C63.6822 59.7102 61.0396 60.6266 58.8744 62.3091C56.7093 63.9917 55.1395 66.3489 54.4025 69.0242C54.2674 69.4096 54.02 69.7436 53.6936 69.981C53.3671 70.2185 52.9772 70.3481 52.5765 70.3523H35.3755C34.9748 70.3481 34.5849 70.2185 34.2585 69.981C33.932 69.7436 33.6846 69.4096 33.5495 69.0242C32.7674 66.3756 31.1856 64.0474 29.0304 62.3725C26.8751 60.6976 24.2567 59.7618 21.5495 59.6987C18.8292 59.7102 16.1866 60.6266 14.0214 62.3091C11.8563 63.9917 10.2865 66.3489 9.54951 69.0242C9.41444 69.4096 9.16702 69.7436 8.84055 69.981C8.51408 70.2185 8.12425 70.3481 7.72352 70.3523H5.89851C5.17443 70.3704 4.4543 70.238 3.78181 69.9632C3.10931 69.6884 2.49846 69.2769 1.98631 68.7536C1.47415 68.2304 1.07138 67.6064 0.802391 66.9193C0.533407 66.2323 0.40383 65.4966 0.421517 64.7568V43.704C0.415821 43.4554 0.458816 43.2082 0.547997 42.9768C0.637177 42.7454 0.770742 42.5346 0.940819 42.3568C1.1109 42.1789 1.31405 42.0375 1.53837 41.941C1.76268 41.8445 2.00363 41.7948 2.24702 41.7948C2.49041 41.7948 2.73134 41.8445 2.95565 41.941C3.17996 42.0375 3.38314 42.1789 3.55322 42.3568C3.72329 42.5346 3.85684 42.7454 3.94602 42.9768C4.0352 43.2082 4.07821 43.4554 4.07252 43.704C4.06662 43.9506 4.10982 44.1959 4.1995 44.425C4.28918 44.654 4.42347 44.8621 4.59422 45.0365C4.76497 45.211 4.96861 45.3481 5.19282 45.4398C5.41702 45.5314 5.6571 45.5755 5.89851 45.5695H52.8485C53.0899 45.5755 53.33 45.5314 53.5542 45.4398C53.7784 45.3481 53.9821 45.211 54.1528 45.0365C54.3236 44.8621 54.4578 44.654 54.5475 44.425C54.6372 44.1959 54.6804 43.9506 54.6745 43.704V30.9193C54.6686 30.6726 54.7118 30.4274 54.8015 30.1983C54.8912 29.9692 55.0255 29.7612 55.1962 29.5867C55.367 29.4123 55.5706 29.2751 55.7948 29.1835C56.019 29.0919 56.2591 29.0477 56.5005 29.0538L69.5405 28.7871C72.1485 28.7871 76.0605 31.1849 77.6255 33.317L84.4065 42.9092C86.7656 46.1432 88.0454 50.0658 88.0575 54.0991V64.7568C87.9486 66.2498 87.3015 67.6485 86.2413 68.6822C85.1812 69.7158 83.7834 70.3109 82.3185 70.3523ZM81.5365 66.6223H82.3185C82.5599 66.6283 82.8 66.5842 83.0242 66.4926C83.2484 66.401 83.4521 66.2638 83.6228 66.0893C83.7936 65.9149 83.9278 65.7068 84.0175 65.4778C84.1072 65.2487 84.1504 65.0034 84.1445 64.7568V54.1001C84.1132 50.8526 83.1123 47.6921 81.2755 45.0413L74.4945 35.4492C73.2461 33.8898 71.4848 32.8479 69.5395 32.5181L58.3255 32.7848V43.704C58.3432 44.4437 58.2136 45.1794 57.9446 45.8665C57.6757 46.5535 57.2729 47.1776 56.7607 47.7008C56.2486 48.2241 55.6377 48.6356 54.9652 48.9104C54.2927 49.1852 53.5726 49.3176 52.8485 49.2995H5.90551C5.28528 49.3422 4.66318 49.2514 4.07951 49.0328V64.7568C4.07361 65.0034 4.11681 65.2487 4.20649 65.4778C4.29617 65.7068 4.43046 65.9149 4.6012 66.0893C4.77195 66.2638 4.97562 66.401 5.19982 66.4926C5.42403 66.5842 5.66411 66.6283 5.90551 66.6223H6.68751C7.85357 63.4884 9.92474 60.7908 12.6262 58.8873C15.3277 56.9839 18.5318 55.9645 21.8135 55.9645C25.0952 55.9645 28.2993 56.9839 31.0008 58.8873C33.7023 60.7908 35.7735 63.4884 36.9395 66.6223H51.2835C52.4496 63.4884 54.5208 60.7908 57.2222 58.8873C59.9237 56.9839 63.1278 55.9645 66.4095 55.9645C69.6912 55.9645 72.8953 56.9839 75.5968 58.8873C78.2983 60.7908 80.3694 63.4884 81.5355 66.6223H81.5365Z" fill="#A34C68"/>
<path d="M66.4105 82.61C64.5535 82.61 62.7382 82.0475 61.1942 80.9935C59.6502 79.9395 58.4468 78.4414 57.7362 76.6887C57.0256 74.9359 56.8396 73.0073 57.2019 71.1466C57.5642 69.2859 58.4584 67.5767 59.7715 66.2353C61.0845 64.8938 62.7575 63.9802 64.5788 63.6101C66.4001 63.24 68.2879 63.4299 70.0035 64.1559C71.7191 64.8819 73.1855 66.1114 74.2171 67.6888C75.2488 69.2662 75.7995 71.1208 75.7995 73.0179C75.8046 74.279 75.5653 75.5287 75.0953 76.6949C74.6253 77.861 73.9339 78.9206 73.061 79.8123C72.1881 80.7041 71.151 81.4104 70.0096 81.8906C68.8681 82.3708 67.6449 82.6153 66.4105 82.61ZM66.4105 67.6942C65.3273 67.6942 64.2683 68.0223 63.3676 68.6372C62.4669 69.252 61.7649 70.1259 61.3504 71.1484C60.9359 72.1708 60.8274 73.2959 61.0387 74.3813C61.2501 75.4667 61.7717 76.4637 62.5377 77.2463C63.3036 78.0288 64.2796 78.5617 65.342 78.7776C66.4044 78.9935 67.5057 78.8827 68.5064 78.4592C69.5072 78.0357 70.3626 77.3185 70.9645 76.3984C71.5663 75.4782 71.8875 74.3963 71.8875 73.2897C71.9057 72.5496 71.7766 71.8134 71.5078 71.1259C71.2391 70.4384 70.8364 69.8138 70.3242 69.2901C69.812 68.7665 69.2009 68.3546 68.5281 68.0796C67.8554 67.8045 67.1349 67.672 66.4105 67.6901V67.6942Z" fill="#A34C68"/>
<path d="M21.8148 82.61C19.9578 82.61 18.1425 82.0475 16.5985 80.9935C15.0545 79.9395 13.8511 78.4414 13.1405 76.6887C12.4298 74.9359 12.2439 73.0073 12.6062 71.1466C12.9685 69.2859 13.8627 67.5767 15.1758 66.2353C16.4888 64.8938 18.1618 63.9802 19.9831 63.6101C21.8044 63.24 23.6922 63.4299 25.4078 64.1559C27.1234 64.8819 28.5898 66.1114 29.6215 67.6888C30.6531 69.2662 31.2038 71.1208 31.2038 73.0179C31.1259 75.5367 30.1117 77.9305 28.3676 79.7124C26.6234 81.4944 24.2802 82.5305 21.8148 82.61ZM21.8148 67.6942C20.7315 67.6942 19.6726 68.0223 18.7719 68.6372C17.8712 69.252 17.1692 70.1259 16.7547 71.1484C16.3402 72.1708 16.2317 73.2959 16.443 74.3813C16.6544 75.4667 17.176 76.4637 17.942 77.2463C18.7079 78.0288 19.6838 78.5617 20.7463 78.7776C21.8087 78.9935 22.91 78.8827 23.9107 78.4592C24.9115 78.0357 25.7669 77.3185 26.3688 76.3984C26.9706 75.4782 27.2918 74.3963 27.2918 73.2897C27.31 72.5496 27.1809 71.8134 26.9121 71.1259C26.6434 70.4384 26.2407 69.8138 25.7285 69.2901C25.2163 68.7665 24.6052 68.3546 23.9325 68.0796C23.2597 67.8045 22.5392 67.672 21.8148 67.6901V67.6942Z" fill="#A34C68"/>
<path d="M52.8484 49.0375H5.90536C5.18137 49.0556 4.46133 48.9232 3.7889 48.6485C3.11647 48.3737 2.50566 47.9623 1.99352 47.4392C1.48138 46.9161 1.07858 46.2921 0.809532 45.6052C0.540487 44.9183 0.410803 44.1827 0.428353 43.443V5.60884C0.410666 4.8691 0.540243 4.13339 0.809227 3.44634C1.07821 2.7593 1.481 2.13523 1.99316 1.612C2.50531 1.08877 3.11616 0.677268 3.78866 0.402465C4.46115 0.127661 5.18128 -0.00472135 5.90536 0.0133481H52.8484C53.5724 -0.00472135 54.2926 0.127661 54.9651 0.402465C55.6376 0.677268 56.2484 1.08877 56.7606 1.612C57.2727 2.13523 57.6755 2.7593 57.9445 3.44634C58.2135 4.13339 58.343 4.8691 58.3254 5.60884V43.443C58.2725 44.9097 57.6785 46.3017 56.6626 47.3394C55.6466 48.3772 54.284 48.9838 52.8484 49.0375ZM5.90536 3.74334C5.66395 3.73731 5.42388 3.78145 5.19967 3.87307C4.97546 3.96469 4.7718 4.10188 4.60105 4.27632C4.4303 4.45076 4.29602 4.65882 4.20634 4.88788C4.11666 5.11693 4.07346 5.36221 4.07935 5.60884V43.443C4.07346 43.6897 4.11666 43.9349 4.20634 44.164C4.29602 44.393 4.4303 44.6011 4.60105 44.7755C4.7718 44.95 4.97546 45.0872 5.19967 45.1788C5.42388 45.2704 5.66395 45.3146 5.90536 45.3085H52.8484C53.0898 45.3146 53.3298 45.2704 53.5541 45.1788C53.7783 45.0872 53.9819 44.95 54.1527 44.7755C54.3234 44.6011 54.4577 44.393 54.5474 44.164C54.6371 43.9349 54.6802 43.6897 54.6744 43.443V5.60884C54.6802 5.36221 54.6371 5.11693 54.5474 4.88788C54.4577 4.65882 54.3234 4.45076 54.1527 4.27632C53.9819 4.10188 53.7783 3.96469 53.5541 3.87307C53.3298 3.78145 53.0898 3.73731 52.8484 3.74334H5.90536Z" fill="#A34C68"/>
</svg>
